<svg width="900" height="600" viewBox="0 0 900 600" fill="none" xmlns="http://www.w3.org/2000/svg">
<g clip-path="url(#clip0_103_1389)">
<path d="M900 0H0V600H900V0Z" fill="#C8313E"/>
<path d="M900 400H0V600H900V400Z" fill="#4AA657"/>
<path d="M100 0H0V600H100V0Z" fill="white"/>
<path fill-rule="evenodd" clip-rule="evenodd" d="M17.3913 0H30.4348V9.83607H34.7826V19.6721H39.1304V29.5082H43.4783V39.3443H47.8261V49.1803H43.4783V59.0164H39.1304V68.8525H34.7826V78.6885H30.4348V88.5246H26.087V98.3607H21.7391V88.5246H17.3913V78.6885H13.0435V68.8525H8.69565V59.0164H4.34783V49.1803H0V39.3443H4.34783V29.5082H8.69565V19.6721H13.0435V9.83607H17.3913V0ZM21.7391 19.6721H26.087V29.5082H30.4348V39.3443H34.7826V49.1803H30.4348V59.0164H26.087V68.8525H21.7391V59.0164H17.3913V49.1803H13.0435V39.3443H17.3913V29.5082H21.7391V19.6721ZM21.7391 39.3443H26.087V49.1803H21.7391V39.3443ZM0 9.83607H4.34783V19.6721H0V9.83607ZM0 68.8525H4.34783V78.6885H0V68.8525ZM47.8261 0H50.4348V19.6721H47.8261V0ZM47.8261 68.8525H50.4348V88.5246H47.8261V68.8525ZM8.69565 88.5246H13.0435V98.3607H17.3913V108.197H21.7391V118.033H17.3913V127.869H13.0435V137.705H8.69565V127.869H4.34783V118.033H0V108.197H4.34783V98.3607H8.69565V88.5246ZM8.69565 108.197H13.0435V118.033H8.69565V108.197ZM34.7826 88.5246H39.1304V98.3607H43.4783V108.197H47.8261V118.033H43.4783V127.869H39.1304V137.705H34.7826V127.869H30.4348V118.033H26.087V108.197H30.4348V98.3607H34.7826V88.5246ZM34.7826 108.197H39.1304V118.033H34.7826V108.197ZM0 147.541H4.34783V157.377H0V147.541ZM47.8261 137.705H50.4348V157.377H47.8261V137.705Z" fill="#C8313E"/>
<path fill-rule="evenodd" clip-rule="evenodd" d="M0 177.049H4.34783V167.213H8.69565V157.377H13.0435V147.541H17.3913V137.705H21.7391V127.869H26.087V137.705H30.4348V147.541H34.7826V157.377H39.1304V167.213H43.4783V177.049H47.8261V186.885H50.4348V226.23H47.8261V236.066H43.4783V245.902H39.1304V255.738H34.7826V265.574H30.4348V275.41H26.087V300.984H17.3913V295.082H13.0435V285.246H8.69565V275.41H4.34783V265.574H0V236.066H4.34783V245.902H8.69565V255.738H13.0435V265.574H17.3913V255.738H21.7391V245.902H26.087V236.066H30.4348V226.23H34.7826V216.393H39.1304V206.557H34.7826V196.721H30.4348V186.885H17.3913V196.721H26.087V206.557H21.7391V216.393H17.3913V226.23H13.0435V216.393H8.69565V206.557H4.34783V196.721H0V177.049ZM0 216.393H4.34783V226.23H0V216.393ZM47.8261 245.902H50.4348V255.738H47.8261V245.902ZM39.1304 265.574H43.4783V275.41H47.8261V285.246H50.4348V300.984H47.8261V295.082H43.4783V285.246H39.1304V265.574ZM30.4348 295.082H34.7826V300.984H30.4348V295.082Z" fill="#C8313E"/>
</g>
<defs>
<clipPath id="clip0_103_1389">
<rect width="900" height="600" fill="white"/>
</clipPath>
</defs>
</svg>
