<svg width="900" height="600" viewBox="0 0 900 600" fill="none" xmlns="http://www.w3.org/2000/svg">
<path d="M900 0H0V600H900V0Z" fill="white"/>
<path d="M434.8 498.25C434.62 498.164 434.582 498.128 434.453 498.005L434.328 497.888C434.004 497.591 433.467 497.066 432.746 496.245C431.414 494.732 429.627 492.517 428.056 490.56C424.941 486.677 422.367 483.332 421.882 482.702L421.089 481.67L413.322 479.275L407.651 476.631L410.681 473.225L421.089 477.681L428.856 479.275L443.219 489.839L443.208 489.848C443.179 489.872 441.119 491.586 439.072 493.447C438.159 494.277 437.008 495.343 436.195 496.23C435.82 496.638 435.49 497.043 435.265 497.37C435.127 497.571 435.05 497.753 435.013 497.841L435.905 497.286L436.872 498.038L434.904 498.222L434.814 498.242L434.8 498.25ZM381.46 482.23C374.683 482.229 367.989 480.356 361.565 476.663L361.558 476.659L361.561 476.651C361.561 476.651 362.401 475.05 364.439 473.555C366.38 472.13 369.881 470.427 375.539 470.405H375.656C382.357 470.405 390.557 472.683 400.029 477.176C399.709 477.388 392.273 482.23 381.463 482.23L381.473 482.24L381.46 482.23ZM352.09 475.72C350.837 475.72 349.711 475.246 348.92 474.387C348.271 473.681 347.806 472.741 347.498 471.509C346.994 469.491 347.133 467.484 347.147 467.292C347.673 467.071 348.209 466.95 348.709 466.938L348.821 466.936C351.332 466.936 353.311 469.114 354.159 471.273C354.64 472.5 354.733 473.532 354.433 474.34C354.133 475.15 353.193 475.71 352.093 475.71L352.09 475.72ZM403.77 469.73C386.411 467.251 379.053 460.975 375.937 456.147C372.614 450.998 373.296 446.235 373.303 446.187L373.306 446.173L373.319 446.169C373.324 446.169 374.38 445.884 375.977 445.876C380.595 445.876 392.407 448.199 403.775 469.718L403.782 469.732L403.762 469.722L403.77 469.73ZM368.19 466.29C360.774 466.289 355.128 465.01 351.408 462.486C349.27 461.036 348.224 459.443 347.722 458.361C347.252 457.347 347.145 456.505 347.128 456.338C347.324 456.248 350.36 454.9 354.893 454.688C355.276 454.67 355.662 454.659 356.067 454.658C361.799 454.658 370.515 456.528 379.713 465.438L379.722 465.447L379.711 465.448C375.511 465.998 371.631 466.288 368.181 466.288L368.19 466.29ZM332.28 464.91C324.46 464.91 313.717 462.522 307.017 455.823L307.01 455.815L307.03 455.81C307.1 455.792 314.372 453.947 322.553 453.748C323.041 453.736 323.532 453.729 324.028 453.729C331.36 453.729 336.972 455.151 340.71 457.954C342.015 458.933 342.728 459.844 342.888 460.737C343.022 461.483 342.628 462.287 341.832 462.887C340.149 464.158 337.14 464.836 332.887 464.904L332.287 464.924L332.28 464.91ZM306.94 451.91C305.977 451.91 305.073 451.484 304.461 450.743C303.955 450.129 303.603 449.327 303.353 448.221C302.935 446.373 303.061 444.565 303.062 444.547L303.063 444.529C303.427 444.357 303.834 444.265 304.28 444.254H304.283C305.44 444.254 306.322 444.884 306.872 445.412C307.605 446.117 308.205 447.057 308.56 448.057C308.925 449.087 308.984 449.949 308.74 450.692C308.54 451.282 307.86 451.902 306.94 451.902V451.91ZM365.47 450.59C364.217 450.59 363.091 450.116 362.3 449.257C361.651 448.551 361.186 447.611 360.878 446.379C360.374 444.361 360.513 442.354 360.527 442.162C361.053 441.941 361.589 441.82 362.089 441.808L362.201 441.806C364.712 441.806 366.691 443.984 367.539 446.143C368.02 447.37 368.113 448.402 367.813 449.21C367.513 450.03 366.563 450.58 365.473 450.58L365.47 450.59ZM336.96 449.41C321.223 448.856 313.056 444.383 308.976 440.727C306.679 438.669 305.402 436.629 304.736 435.28C304.108 434.006 303.87 433.031 303.828 432.842L303.849 432.833C303.852 432.833 305.338 432.301 307.734 432.254L308.102 432.25C313.409 432.25 324.213 434.479 336.954 449.403V449.413L336.96 449.41ZM354.05 447.82C341.389 445.892 334.216 440.457 330.428 436.235C326.457 431.81 325.268 427.689 325.215 427.497C325.238 427.49 326.785 427.087 329.115 427.028C329.284 427.023 329.46 427.021 329.639 427.021C329.82 427.021 330.004 427.023 330.192 427.028C336.56 427.167 348.126 430.051 354.047 447.813H354.057L354.05 447.82ZM289.05 441.74C284.901 441.74 280.876 441.26 277.088 440.313C270.459 438.655 267.615 436.124 266.397 434.292C265.705 433.252 265.454 432.34 265.366 431.758C265.281 431.202 265.326 430.759 265.335 430.685L265.366 430.674C265.383 430.67 269.766 429.439 275.83 429.346C276.069 429.342 276.31 429.34 276.555 429.34C279.482 429.34 282.363 429.619 285.119 430.17C295.655 432.277 301.119 440.23 301.172 440.31L301.177 440.319L301.164 440.322C301.104 440.332 296.084 441.742 289.044 441.742L289.05 441.74ZM318.44 431.06C317.171 431.06 316.045 430.597 315.268 429.756C314.629 429.065 314.164 428.113 313.848 426.848C313.342 424.833 313.483 422.846 313.497 422.663C314.023 422.442 314.559 422.321 315.059 422.309L315.171 422.307C317.677 422.307 319.659 424.486 320.51 426.645C320.978 427.833 321.06 428.853 320.753 429.679C320.443 430.519 319.533 431.059 318.443 431.059L318.44 431.06ZM296.34 428.03C296.245 428.007 290.363 426.494 284.373 422.805C278.829 419.392 272.047 413.355 271.22 403.975V403.97L271.234 403.966C271.235 403.966 271.75 403.841 272.512 403.812C272.617 403.808 272.729 403.806 272.846 403.806C274.502 403.806 277.892 404.272 281.993 407.39C287.213 411.37 292.033 418.31 296.343 428.04L296.34 428.03ZM310.77 427.5C310.733 427.485 306.541 425.807 301.301 421.416C296.419 417.324 289.555 409.956 284.585 398.086C284.588 398.085 285.727 397.478 287.471 397.368C287.572 397.361 287.674 397.359 287.777 397.359C287.927 397.359 288.082 397.364 288.24 397.368C290.651 397.436 294.323 398.438 298.394 402.831C303.07 407.878 307.244 416.171 310.798 427.482L310.808 427.514L310.778 427.504L310.77 427.5ZM273.38 426.41C268.559 426.41 266.909 423.795 266.423 422.67C265.625 420.821 265.867 418.981 265.869 418.963L265.872 418.943C266.652 418.748 267.477 418.64 268.27 418.629L268.435 418.628C272.234 418.628 275.233 420.557 276.519 422.469C276.774 422.848 277.556 424.163 276.909 425.19C276.389 426 275.209 426.41 273.379 426.41H273.38ZM262.7 412.94C260.008 412.94 255.889 412.775 251.559 411.988C247.265 411.207 244.831 407.556 243.546 404.632C242.147 401.447 241.752 398.409 241.748 398.378H241.76C255.042 398.768 261.315 402.649 264.238 405.835C267.256 409.125 267.435 412.541 267.444 412.757L267.435 412.758C267.415 412.758 265.545 412.938 262.695 412.938L262.7 412.94ZM276.53 399.12C276.512 399.098 274.995 397.222 273.497 394.892C271.924 392.447 270.469 389.896 270.469 387.808C270.469 385.792 269.995 381.542 269.712 379.189C269.354 376.204 268.992 373.649 268.962 373.432L268.975 373.436C269.312 373.559 277.283 376.55 277.283 384.027C277.283 391.516 276.545 399.041 276.538 399.116L276.537 399.127H276.527L276.53 399.12ZM266.2 398.41C266.116 398.41 266.033 398.402 265.95 398.389C263.594 397.996 259.454 396.195 254.877 393.571C249.795 390.657 245.668 387.535 243.257 384.78C241.059 382.268 239.754 378.323 239.377 373.054C239.11 369.315 239.43 366.2 239.464 365.891C239.876 365.754 240.314 365.687 240.779 365.687C242.543 365.716 244.426 366.51 246.968 368.261C248.949 369.626 251.133 371.482 253.458 373.775C257.47 377.732 260.626 381.707 260.657 381.746L260.689 381.786C260.954 382.261 263.226 386.357 264.996 390.344C266.12 392.876 266.763 394.701 267.02 396.09C267.167 396.881 267.21 397.4 267.016 397.871C266.935 398.066 266.781 398.247 266.631 398.319C266.491 398.379 266.351 398.409 266.191 398.409L266.2 398.41Z" fill="#435125"/>
<path d="M698.83 95.4759L696.475 96.4139L695.552 96.7819L692.698 96.6249L690.025 97.9079L685.285 101.147L685.076 101.297L683.309 101.758L681.668 101.05L680.736 101.474L680.415 103.394L679.528 104.773L678.436 105.54L674.653 105.927L671.463 107.572L667.313 106.461L665.385 107.216L661.286 110.908L659.191 111.9L658.459 111.858L655.681 111.715L654.508 112.099L652.756 113.792L649.441 114.05L648.408 114.765L646.79 118.025L645.037 119.833L644.034 120.045L642.947 119.647L642.13 119.791L641.76 121.877L640.967 122.751L638.748 123.515L636.975 124.992L635.419 125.791L633.335 125.739H632.856L630.78 126.885L626.875 127.227L625.251 128.776L624.893 129.107L624.135 129.565L622.895 130.305L622.591 130.489L621.096 130.222L619.346 130.915L618.638 129.826L617.427 130.553L615.823 130.622L613.825 129.733L612.303 129.055L611.19 129.216L610.803 131.156L610.764 131.362L609.594 132.919L607.41 134.242L607.113 134.629L604.628 137.837L599.906 142.803L595.913 144.831L591.774 146.09L588.877 148.47L581.278 152.237L569.284 158.204L566.831 158.99L563.311 159.552L557.033 161.864L551.494 163.535L551.186 163.629L550.09 163.961L542.28 166.324L538.645 165.94L536.492 166.722L530.887 166.1L526.99 166.177L524.523 166.69L519.886 168.914L512.059 172.676L509.473 175.042L505.446 177.143L500.731 178.636L500.742 176.655L500.714 176.571L499.078 177.088L497.897 177.461L494.072 178.051H491.944L490.623 177.667L490.419 177.736L482.601 180.312L473.882 181.154L469.519 182.553L466.259 182.501L464.221 183.108L460.226 183.596L458.798 183.215L458.476 183.127L446.726 183.637L441.354 183.03L438.79 183.613L434.494 182.168L428.225 181.441L426.76 181.002L423.465 180.024L421.974 180.883L420.858 181.002L418.191 180.035L417.231 180.01L415.029 180.806L413.762 180.481L412.585 179.543L409.824 179.132L408.142 177.718L398.74 178.964L396.189 178.214L387.635 175.722L386.274 175.791L384.578 177.062L382.03 177.991L379.818 178.566L376.806 178.671L373.309 177.753L369.703 176.005L368.37 175.688L365.396 175.988L364.486 176.071L359.02 173.139L351.978 168.735L347.2 166.439L345.406 166.148L345.165 167.001L346.055 169.806L346.358 172.58L346.267 175.143L346.218 176.73L346.664 178.155L348.389 180.067L349.108 181.987L349.634 187.271L349.628 192.633L348.789 201.184L348.506 202.486L347.505 206.916L346.591 210.985L343.045 221.818L342.071 223.161L339.68 224.792L334.261 228.48L330.271 230.781L329.008 231.304L325.769 231.549L323.751 231.444L321.238 230.083L318.771 229.448L315.539 227.124L311.944 226.38L308.003 224.102L306.977 222.869L304.831 222.667L301.855 221.774L301.857 221.769L300.764 221.442L300.009 221.222V221.221L296.213 221.117L292.673 219.483L290.809 219.033L288.262 218.904L285.596 220.143L285.595 220.139L284.244 220.768L282.537 220.09L281.302 220.167L279.903 222.282L279.694 222.61L278.73 223.12L277.53 223.103L276.591 223.078L275.575 223.522L274.207 224.115V224.118L272.999 224.645L272.409 224.9L272.399 224.89L272.036 224.963L271.391 225.075L270.591 225.228L269.181 224.404L268.431 223.962L267.174 223.706L266.497 224.195L266.364 226.496L265.746 227.874L263.785 229.608L261.792 231.363L260.403 233.41L256.727 241.8L254.424 245.185L253.709 245.974L251.301 248.63L249.165 250.287L244.243 254.102L239.584 255.843L235.571 256.663L233.62 256.671L229.924 256.179L226.601 255.159L222.951 252.877L218.948 249.66L213.154 243.936L212.334 243.443L212.163 243.329L210.338 242.162L208.984 242.197L208.454 243.071L208.164 244.334L207.919 245.454L207.255 251.821L207.304 252.19L207.653 254.812L212.054 260.962L213.412 264.229L213.635 264.602L214.543 266.127L215.234 267.29L215.303 267.408L216.807 271.896L215.75 274.43L216.284 276.127L214.948 277.164L214.703 278.629L218.654 283.582L219.516 285.767L218.553 288.796L217.017 290.467L216.588 290.924L216.804 292.204L218.622 293.839L221.711 296.589L223.358 300.675L224.611 301.771L226.067 301.461L226.877 302.079L228.105 302.058L229.313 303.266L230.095 303.645L231.331 304.261L232.308 305.533L232.524 309.444L234.346 314.304L234.374 316.939L234.384 317.313L235.518 319.261L235.874 320.799L235.27 324.868L236.715 326.174L238.282 325.854L239.294 326.014L240.92 327.368L242.889 330.369L244.815 330.087L246.037 330.676L251.939 336.01L253.278 336.686L253.352 336.728L254.315 337.211L255.512 338.419L257.368 337.187L257.574 337.166L259.592 336.988L260.478 337.585L262.182 338.734L264.416 338.705L269.26 340.19L271.379 340.733L275.64 343.381L277.451 344.501L278.523 345.372L279.947 346.533L282.792 347.757L285.232 348.341L286.554 348.655L287.549 349.039L287.574 348.977L287.588 348.981L287.564 349.044L292.848 351.067L295.71 351.735L298.358 352.71L300.285 353.413L301.699 353.436L303.699 351.754L305.636 351.642L307.245 352.043L308.815 351.78L311.3 350.249L311.785 349.53L313.547 348.691L319.491 347.953L321.228 348.517L325.688 346.577L328.676 347.408L331.321 346.47L337.1 347.754L338.636 348.835L340.353 350.8L340.563 350.809L342.475 350.846L341.676 352.177L344.199 354.824L346.478 358.269L346.632 358.724L348.289 363.588L349.521 365.311L350.383 367.716L350.425 369.284L349.085 370.306L348.865 370.889L348.789 371.105L349.061 371.76L349.567 371.484L350.53 370.951L351.696 370.77L353.762 370.99L355.126 371.133L357.28 370.064L358.707 369.354L361 370.341L363.52 370.313L364.578 370.784L367.573 372.142L369.102 372.286L369.667 371.915L370.027 371.059L369.842 370.063L368.697 368.74L366.166 365.802L365.13 364.292L364.341 362.106L364.096 359.312L363.922 357.427L364.236 354.95L364.916 354.066L365.416 352.098H365.425L365.554 351.583L366.96 349.717L370.684 347.324L374.684 343.742L377.846 341.657L381.106 340.245L381.193 339.849L381.556 339.995L389.848 337.176L389.985 337.16L393.677 336.517L418.597 338.272L419.521 337.993L419.525 337.987L420.355 335.657L420.802 335.225L421.099 334.943L423.839 333.737L425.12 333.554L428.676 334.432L430.132 334.791L432.464 333.484L434.118 333.512L437.535 331.646L439.646 331.699L440.449 331.378L444.561 328.423L448.522 327.288L449.552 326.74L449.915 326.541L453.975 324.397L456.554 322.416L458.78 321.233L461.218 320.604L467.598 320.155L468.881 318.017L471.625 317.651L473.282 315.781L475.178 315.01L476.537 313.052L477.676 311.411L479.267 310.49L484.367 310.17L490.412 310.919L491.211 310.434L492.577 305.559L494.007 304.644L497.858 299.032L497.871 296.987L497.875 295.279L498.508 292.847L498.078 288.456L498.588 284.01L500.982 278.36L503.091 276.081L506.492 273.78L508.221 273.027L510.67 272.615V272.609L511.03 272.548L511.654 272.441L520.087 272.325C520.204 272.238 523.154 272.283 523.154 272.283L525.966 272.245L533.08 273.511L533.586 273.599L535.991 274.378L538.765 276.535L541.701 279.403L542.252 279.938L544.154 280.739L544.729 280.99L546.3 280.739L548.537 279.574L550.225 278.147L552.526 276.89L552.582 276.81L553.877 274.862L553.916 274.822L553.944 274.829L553.947 274.818L553.925 274.813L554.436 274.038L558.883 272.305L564.113 272.001L564.701 271.683L565.028 271.508L566.41 269.885L567.705 269.874L570.84 271.008L573.044 270.571L574.794 271.27L576.154 271.109L578.719 270.805L581.473 272.743L583.078 272.948L588.736 276.258L589.03 276.306L589.182 276.334L589.506 276.387L590.177 276.188L591.175 275.899L591.307 275.86L591.433 276.034L592.076 276.941L592.958 277.067L594.002 275.674L593.587 275.042L593.43 274.812L591.409 274.401L589.594 271.298L591.322 269.437L588.611 266.111L588.161 265.56L588.008 265.326L587.071 263.903L582.325 256.668L576.143 251.733L576.141 251.737L573.976 250.005L573.962 249.995L573.204 249.399L569.902 246.041L567.544 242.911L567.235 242.237L566.748 241.175L565.335 238.097L562.873 236.201L560.867 234.01L560.769 233.881L556.629 228.255L555.949 227.312L554.971 226.747L552.905 226.733L552.71 226.537L552.594 226.416L552.664 226.342L553.655 225.357L554.76 225.079L555.236 223.99L553.128 217.886L553.114 217.673L552.957 215.723L554.675 206.868L554.895 205.789L557.823 199.831L559.637 198.345L561.617 194.453L563.313 191.965L564.938 190.383L565.222 190.215L568.156 188.439L570.621 188.092L572.969 187.761L577.068 189.025L580.969 188.949L581.73 188.868L583.5 188.665L586.411 187.748L587.785 186.9L588.498 185.807L589.985 180.82L590.463 179.233L591.38 177.509L596.686 171.401L600.697 167.691L609.716 161.078L614.131 158.439L616.385 157.092L636.511 148.146L641.741 142.844L644.466 140.087L649.287 136.852L654.928 134.541L659.782 130.699L660.842 129.365L662.178 125.062L663.291 124.793L664.296 122.619L664.582 122.001L668.543 119.209L668.991 118.986L684.379 111.276L686.615 111.583L687.812 109.79L692.289 109.039L693.113 108.899L694.217 108.348L695.156 106.749V106.433L695.285 102.16L696.241 101.005L696.762 98.1889L697.253 97.5389L697.766 96.8629L699.034 95.9719L698.814 95.4409L698.83 95.4759Z" fill="#D47600"/>
</svg>
