<svg width="900" height="600" viewBox="0 0 900 600" fill="none" xmlns="http://www.w3.org/2000/svg">
<path d="M900 0H0V600H900V0Z" fill="#FF0000"/>
<path d="M360 0H0V600H360V0Z" fill="#006600"/>
<path fill-rule="evenodd" clip-rule="evenodd" d="M477.36 393.06C432.045 391.695 224.25 261.99 222.825 241.335L234.3 222.199C254.911 252.148 467.34 378.289 488.205 373.819L477.36 393.054" fill="#FFFF00"/>
<path d="M477.36 393.06C432.045 391.695 224.25 261.99 222.825 241.335L234.3 222.199C254.911 252.148 467.34 378.289 488.205 373.819L477.36 393.054" stroke="black" stroke-width="0.573" stroke-linecap="round" stroke-linejoin="round"/>
<path fill-rule="evenodd" clip-rule="evenodd" d="M231.885 219.6C227.82 230.54 286.108 266.577 356.239 309.231C426.367 351.882 486.837 378.24 491.319 374.46C491.593 373.972 493.524 370.648 493.347 370.675C492.507 371.941 490.462 372.341 487.271 371.421C468.325 365.956 418.909 343.274 357.71 306.162C296.513 269.048 243.269 234.846 234.994 220.314C234.418 219.307 234.008 217.47 234.091 216.041L233.89 216.038L232.128 219.118L231.886 219.601H231.885L231.885 219.6ZM478.425 393.66C477.656 395.054 476.224 395.1 473.503 394.801C456.553 392.926 405.119 367.914 344.26 331.482C273.445 289.092 214.96 250.467 221.305 240.372L223.031 237.32L223.371 237.426C217.665 254.533 338.793 323.793 345.924 328.209C416.01 371.63 475.096 396.986 480.325 390.396L478.423 393.668V393.664L478.425 393.66Z" fill="#FFFF00" stroke="black" stroke-width="0.573" stroke-linecap="round" stroke-linejoin="round"/>
<path fill-rule="evenodd" clip-rule="evenodd" d="M360.255 253.845C405.611 253.486 461.58 247.647 493.79 234.81L486.85 223.535C467.812 234.072 411.535 241.001 359.872 242.037C298.768 241.475 255.637 235.785 234.026 221.285L227.476 233.291C267.202 250.102 307.91 253.672 360.256 253.846" fill="#FFFF00"/>
<path d="M360.255 253.845C405.611 253.486 461.58 247.647 493.79 234.81L486.85 223.535C467.812 234.072 411.535 241.001 359.872 242.037C298.768 241.475 255.637 235.785 234.026 221.285L227.476 233.291C267.202 250.102 307.91 253.672 360.256 253.846" stroke="black" stroke-width="0.573" stroke-linecap="round" stroke-linejoin="round"/>
<path fill-rule="evenodd" clip-rule="evenodd" d="M495.66 235.065C494.552 236.838 473.546 244.082 442.601 249.428C421.619 252.627 394.25 255.361 360.095 255.394C327.645 255.425 301.137 253.115 281.069 250.395C248.585 245.302 231.819 238.215 225.621 235.711C226.214 234.532 226.595 233.705 227.166 232.604C245.009 239.708 261.852 243.992 281.585 247.028C301.521 249.728 327.71 252.071 359.999 252.041C393.995 252.006 421.062 249.064 441.923 245.961C473.655 240.842 490.989 234.256 493.424 231.197L495.665 235.065H495.662H495.66ZM489.57 223.631C486.13 226.393 468.993 232.471 438.841 237.286C418.719 240.17 393.133 242.751 360.444 242.783C329.388 242.813 304.015 240.721 284.716 237.909C254.095 233.91 237.798 226.696 231.922 224.593C232.507 223.582 233.102 222.58 233.713 221.573C238.285 223.875 254.013 230.259 285.052 234.656C304.132 237.362 329.544 239.378 360.445 239.346C392.98 239.313 418.275 236.682 438.27 233.814C468.577 229.644 484.885 221.893 487.362 219.952L489.571 223.628V223.631L489.57 223.631Z" fill="#FFFF00" stroke="black" stroke-width="0.573" stroke-linecap="round" stroke-linejoin="round"/>
<path fill-rule="evenodd" clip-rule="evenodd" d="M211.32 308.49C239.217 323.494 301.177 331.056 359.811 331.576C413.197 331.661 482.748 323.324 508.756 309.541L508.041 294.523C499.904 307.239 425.371 319.437 359.232 318.937C293.092 318.439 231.675 308.223 211.201 294.999L211.32 308.486" fill="#FFFF00"/>
<path d="M211.32 308.49C239.217 323.494 301.177 331.056 359.811 331.576C413.197 331.661 482.748 323.324 508.756 309.541L508.041 294.523C499.904 307.239 425.371 319.437 359.232 318.937C293.092 318.439 231.675 308.223 211.201 294.999L211.32 308.486" stroke="black" stroke-width="0.573" stroke-linecap="round" stroke-linejoin="round"/>
<path fill-rule="evenodd" clip-rule="evenodd" d="M510.18 306.33L510.181 309.911C506.272 314.585 481.762 321.649 451.026 326.624C427.633 330.21 397.135 332.916 359.133 332.916C323.029 332.916 294.238 330.341 271.911 326.914C236.617 321.774 214.042 312.774 209.511 310.088L209.531 305.91C223.143 314.96 260.022 321.581 272.406 323.607C294.588 327.012 323.208 329.567 359.132 329.567C396.956 329.567 427.283 326.88 450.528 323.318C472.58 320.132 503.994 311.848 510.179 306.332H510.18L510.18 306.33ZM510.195 293.591L510.196 297.173C506.287 301.844 481.777 308.908 451.041 313.883C427.648 317.469 397.15 320.174 359.148 320.174C323.044 320.174 294.253 317.603 271.926 314.172C236.632 309.035 214.057 300.035 209.526 297.348L209.546 293.17C223.158 302.219 260.037 308.841 272.421 310.864C294.603 314.272 323.223 316.828 359.147 316.828C396.971 316.828 427.298 314.14 450.543 310.575C472.595 307.389 504.009 299.105 510.194 293.589L510.195 293.592L510.195 293.591Z" fill="#FFFF00" stroke="black" stroke-width="0.573" stroke-linecap="round" stroke-linejoin="round"/>
<path fill-rule="evenodd" clip-rule="evenodd" d="M359.685 390.48C295.527 390.098 240.553 372.992 228.945 370.164L237.41 383.416C257.915 392.041 311.546 404.896 360.3 403.472C409.056 402.05 451.665 398.273 481.692 383.656L490.372 369.922C469.909 379.56 400.27 390.381 359.684 390.48" fill="#FFFF00"/>
<path d="M359.685 390.48C295.527 390.098 240.553 372.992 228.945 370.164L237.41 383.416C257.915 392.041 311.546 404.896 360.3 403.472C409.056 402.05 451.665 398.273 481.692 383.656L490.372 369.922C469.909 379.56 400.27 390.381 359.684 390.48" stroke="black" stroke-width="0.573" stroke-linecap="round" stroke-linejoin="round"/>
<path fill-rule="evenodd" clip-rule="evenodd" d="M484.95 380.58C483.675 382.528 482.375 384.453 481.056 386.324C466.893 391.318 444.577 396.56 435.16 398.09C415.924 402.053 386.163 404.981 359.749 404.994C302.914 404.162 256.392 393.036 234.505 383.546L232.739 380.509L233.028 380.053L236.022 381.215C274.944 395.14 318.659 400.695 360.07 401.693C386.377 401.785 412.712 398.678 434.008 394.869C466.664 388.326 479.869 383.394 483.92 381.158L484.951 380.58H484.949L484.95 380.58ZM492.476 368.167C492.509 368.205 492.542 368.242 492.574 368.283C491.62 369.893 490.637 371.531 489.631 373.177C482.077 375.877 461.578 381.875 431.642 386.06C411.919 388.747 399.659 391.349 360.424 392.111C286.901 390.241 239.299 375.865 227.99 372.319L226.314 369.104C268.923 380.227 312.447 387.992 360.426 388.786C396.322 388.021 411.594 385.378 431.154 382.711C466.061 377.283 483.648 371.536 488.927 369.877C488.86 369.782 488.782 369.681 488.695 369.578L492.48 368.164L492.477 368.167L492.476 368.167Z" fill="#FFFF00" stroke="black" stroke-width="0.55" stroke-linecap="round" stroke-linejoin="round"/>
<path fill-rule="evenodd" clip-rule="evenodd" d="M493.245 296.64C493.453 338.845 471.855 376.719 454.458 393.427C429.846 417.066 397.214 432.271 359.105 432.972C316.55 433.754 276.425 406.011 265.662 393.823C244.62 369.996 227.489 339.738 226.94 298.959C229.546 252.895 247.629 220.809 273.842 198.805C300.054 176.802 334.956 166.086 364.023 166.852C397.56 167.737 436.736 184.189 463.805 216.85C481.539 238.249 489.219 261.472 493.245 296.64ZM359.466 152.127C441.194 152.127 508.41 218.634 508.41 300.181C508.41 381.727 441.194 448.237 359.466 448.237C277.739 448.237 211.08 381.729 211.08 300.181C211.08 218.634 277.739 152.127 359.466 152.127" fill="#FFFF00"/>
<path d="M359.466 152.127C441.194 152.127 508.41 218.634 508.41 300.181C508.41 381.727 441.194 448.237 359.466 448.237C277.739 448.237 211.08 381.729 211.08 300.181C211.08 218.634 277.739 152.127 359.466 152.127M493.245 296.64C493.453 338.845 471.855 376.719 454.458 393.427C429.846 417.066 397.214 432.271 359.105 432.972C316.55 433.754 276.425 406.011 265.662 393.823C244.62 369.996 227.489 339.738 226.94 298.959C229.546 252.895 247.629 220.809 273.842 198.805C300.054 176.802 334.956 166.086 364.023 166.852C397.56 167.737 436.736 184.189 463.805 216.85C481.539 238.249 489.219 261.472 493.245 296.64Z" stroke="black" stroke-width="0.573" stroke-linecap="round" stroke-linejoin="round"/>
<path fill-rule="evenodd" clip-rule="evenodd" d="M359.865 151.62C441.666 151.62 508.382 218.345 508.382 300.153C508.382 381.96 441.665 448.683 359.865 448.683C278.064 448.683 211.349 381.962 211.349 300.153C211.349 218.345 278.066 151.62 359.865 151.62V151.62ZM214.617 300.154C214.617 380.044 280.221 445.417 359.865 445.417C439.511 445.417 505.115 380.044 505.115 300.154C505.115 220.261 439.509 154.888 359.865 154.888C280.221 154.888 214.617 220.264 214.617 300.154Z" fill="#FFFF00" stroke="black" stroke-width="0.573" stroke-linecap="round" stroke-linejoin="round"/>
<path fill-rule="evenodd" clip-rule="evenodd" d="M359.985 163.965C434.581 163.965 496.024 225.196 496.024 300.021C496.024 374.847 434.58 436.075 359.985 436.075C285.39 436.075 223.945 374.847 223.945 300.021C223.945 225.196 285.391 163.965 359.985 163.965V163.965ZM227.212 300.02C227.212 373.047 287.181 432.806 359.985 432.806C432.789 432.806 492.757 373.047 492.757 300.02C492.757 226.991 432.79 167.232 359.985 167.232C287.181 167.232 227.212 226.991 227.212 300.02Z" fill="#FFFF00" stroke="black" stroke-width="0.573" stroke-linecap="round" stroke-linejoin="round"/>
<path fill-rule="evenodd" clip-rule="evenodd" d="M365.97 151.02H353.242L353.257 449.46H366.029L365.97 151.02Z" fill="#FFFF00" stroke="black" stroke-width="0.573" stroke-linecap="round" stroke-linejoin="round"/>
<path fill-rule="evenodd" clip-rule="evenodd" d="M364.695 149.319H367.935L367.963 451.194H364.72L364.697 149.319H364.695ZM352.063 149.322H355.328L355.333 451.197H352.065V149.322H352.063Z" fill="#FFFF00" stroke="black" stroke-width="0.573" stroke-linecap="round" stroke-linejoin="round"/>
<path fill-rule="evenodd" clip-rule="evenodd" d="M508.485 305.902V294.869L499.5 286.499L448.5 272.999L375 265.499L286.5 269.999L223.5 284.999L210.78 294.419V305.455L243 290.999L319.5 278.999H393L447 284.999L484.5 293.999L508.485 305.902Z" fill="#FFFF00" stroke="black" stroke-width="0.573" stroke-linecap="round" stroke-linejoin="round"/>
<path fill-rule="evenodd" clip-rule="evenodd" d="M359.925 277.155C395 277.09 429.03 280.478 456.023 285.734C483.876 291.302 503.478 298.268 510.18 306.091L510.173 309.964C502.09 300.229 475.713 293.092 455.396 289.012C428.609 283.801 394.806 280.437 359.925 280.502C323.118 280.571 288.845 284.057 262.449 289.207C241.269 293.409 213.023 301.758 209.496 309.994V305.96C211.433 300.26 232.466 291.741 261.972 285.835C288.566 280.649 322.902 277.222 359.925 277.155V277.155ZM359.94 264.417C395.015 264.353 429.045 267.743 456.038 272.996C483.891 278.567 503.493 285.529 510.195 293.352L510.188 297.226C502.105 287.493 475.728 280.355 455.411 276.277C428.624 271.063 394.821 267.699 359.94 267.767C323.133 267.833 289.026 271.321 262.628 276.469C242.189 280.343 212.789 289.023 209.51 297.259V293.222C211.446 287.584 232.905 278.76 261.987 273.097C288.581 267.911 322.917 264.487 359.94 264.417V264.417Z" fill="#FFFF00" stroke="black" stroke-width="0.573" stroke-linecap="round" stroke-linejoin="round"/>
<path fill-rule="evenodd" clip-rule="evenodd" d="M359.22 199.44C414.493 199.163 462.705 207.168 484.762 218.467L492.808 232.386C473.637 222.054 421.624 211.311 359.301 212.917C308.52 213.229 254.26 218.508 227.037 233.032L236.642 216.969C258.984 205.382 311.675 199.504 359.222 199.443" fill="#FFFF00"/>
<path d="M359.22 199.44C414.493 199.163 462.705 207.168 484.762 218.467L492.808 232.386C473.637 222.054 421.624 211.311 359.301 212.917C308.52 213.229 254.26 218.508 227.037 233.032L236.642 216.969C258.984 205.382 311.675 199.504 359.222 199.443" stroke="black" stroke-width="0.573" stroke-linecap="round" stroke-linejoin="round"/>
<path fill-rule="evenodd" clip-rule="evenodd" d="M359.955 210.93C391.481 210.846 421.943 212.625 446.169 216.995C468.731 221.194 490.247 227.497 493.323 230.886L495.708 235.101C488.226 230.215 469.607 224.775 445.7 220.242C421.691 215.729 391.25 214.234 359.9 214.317C324.317 214.195 296.672 216.073 272.946 220.21C247.854 224.905 230.445 231.612 226.151 234.799L228.488 230.344C236.833 226.087 250.073 220.955 272.323 216.949C296.858 212.467 324.797 211.123 359.957 210.93H359.956L359.955 210.93ZM359.942 198.203C390.111 198.124 419.9 199.805 443.12 203.979C461.433 207.544 479.544 213.11 486.176 218.063L489.664 223.606C483.734 217.014 461.41 210.767 441.703 207.268C418.662 203.294 390.111 201.721 359.941 201.47C328.279 201.558 299.019 203.498 276.313 207.632C254.652 211.754 240.673 216.634 234.759 220.446L237.826 215.815C245.988 211.519 259.174 207.572 275.781 204.346C298.654 200.181 328.095 198.292 359.943 198.203H359.942Z" fill="#FFFF00" stroke="black" stroke-width="0.573" stroke-linecap="round" stroke-linejoin="round"/>
<path fill-rule="evenodd" clip-rule="evenodd" d="M433.725 361.89C406.398 356.789 379.022 356.048 359.9 356.273C267.789 357.352 238.034 375.186 234.402 380.586L227.518 369.364C250.969 352.366 301.128 342.833 360.399 343.808C391.176 344.312 417.735 346.356 440.077 350.684L433.723 361.893" fill="#FFFF00"/>
<path d="M433.725 361.89C406.398 356.789 379.022 356.048 359.9 356.273C267.789 357.352 238.034 375.186 234.402 380.586L227.518 369.364C250.969 352.366 301.128 342.833 360.399 343.808C391.176 344.312 417.735 346.356 440.077 350.684L433.723 361.893" stroke="black" stroke-width="0.573" stroke-linecap="round" stroke-linejoin="round"/>
<path fill-rule="evenodd" clip-rule="evenodd" d="M359.37 354.69C384.993 355.072 410.144 356.13 434.42 360.657L432.662 363.761C410.115 359.599 386.079 358.006 359.457 358.136C325.463 357.87 291.08 361.045 261.146 369.636C251.701 372.264 236.064 378.337 234.47 383.355L232.721 380.471C233.225 377.505 242.675 371.349 260.342 366.385C294.629 356.567 326.7 354.912 359.37 354.687V354.69L359.37 354.69ZM360.533 341.795C387.08 342.291 414.496 343.519 441.143 348.797L439.312 352.028C415.249 347.251 392.259 345.658 360.69 345.172C326.587 345.235 290.413 347.666 257.523 357.228C246.904 360.321 228.577 367.009 227.967 372.303L226.218 369.205C226.616 364.396 242.481 358.123 256.755 353.971C289.899 344.335 326.167 341.857 360.534 341.795L360.533 341.795Z" fill="#FFFF00" stroke="black" stroke-width="0.55" stroke-linecap="round" stroke-linejoin="round"/>
<path fill-rule="evenodd" clip-rule="evenodd" d="M491.37 371.07L480.301 388.244L448.5 360L366 304.5L273 253.5L224.715 236.985L235.005 217.905L238.5 216L268.5 223.5L367.5 274.5L424.5 310.5L472.5 345L492 367.5L491.37 371.07Z" fill="#FFFF00" stroke="black" stroke-width="0.573" stroke-linecap="round" stroke-linejoin="round"/>
<path fill-rule="evenodd" clip-rule="evenodd" d="M222.975 237.435C231.444 231.691 293.684 259.417 358.808 298.686C423.759 338.067 485.823 382.567 480.221 390.895L478.378 393.794L477.533 394.461C477.714 394.331 478.648 393.189 477.441 390.102C474.674 380.996 430.649 345.865 357.6 301.759C286.388 259.296 227.039 233.703 221.105 241.018L222.975 237.434H222.974L222.975 237.435ZM493.635 370.826C498.99 360.248 441.261 316.76 369.687 274.418C296.468 232.919 243.696 208.491 234.057 215.775L231.916 219.674C231.897 219.888 231.994 219.408 232.446 219.059C234.199 217.529 237.104 217.632 238.415 217.609C255.012 217.857 302.415 239.672 368.924 277.801C398.066 294.773 492.03 355.037 491.672 371.984C491.697 373.441 491.792 373.741 491.245 374.462L493.635 370.827V370.824L493.635 370.826Z" fill="#FFFF00" stroke="black" stroke-width="0.573" stroke-linecap="round" stroke-linejoin="round"/>
<path d="M270.9 316.515C270.9 340.921 280.894 362.995 297.085 379.128C313.308 395.295 335.353 405.496 359.799 405.496C384.37 405.496 406.669 395.518 422.823 379.413C438.976 363.31 448.987 341.085 448.992 316.593H448.989V197.809L270.879 197.598L270.897 316.515H270.9L270.9 316.515Z" fill="white" stroke="black" stroke-width="0.67037"/>
<path d="M274.23 316.68V316.747C274.23 340.083 283.892 361.333 299.393 376.761C314.924 392.218 336.314 401.829 359.714 401.829C383.235 401.829 404.582 392.288 420.047 376.89C435.509 361.492 445.092 340.24 445.095 316.824H445.092V201.585L274.332 201.557L274.228 316.679L274.23 316.68ZM410.761 236.059L410.767 309.395L410.704 317.153H410.706C410.706 319.194 410.583 321.521 410.345 323.503C408.957 335.097 403.624 345.203 395.727 353.065C386.482 362.268 373.72 367.977 359.656 367.977C345.666 367.977 333.198 362.07 323.913 352.827C314.388 343.347 308.868 330.348 308.868 316.906L308.848 235.872L410.758 236.055L410.761 236.058L410.761 236.059Z" fill="#FF0000" stroke="black" stroke-width="0.50734"/>
<path d="M285.285 231.645C285.488 223.363 291.364 221.403 291.406 221.374C291.448 221.346 297.753 223.485 297.732 231.722L285.285 231.645" fill="#FFFF00"/>
<path d="M280.215 221.535L279.192 231.052L285.403 231.066C285.463 223.192 291.364 221.882 291.507 221.911C291.641 221.904 297.49 223.652 297.646 231.066H303.873L302.748 221.476L280.216 221.533V221.536L280.215 221.535Z" fill="#FFFF00" stroke="black" stroke-width="0.5"/>
<path d="M278.775 231.09H304.194C304.73 231.09 305.168 231.619 305.168 232.266C305.168 232.911 304.73 233.438 304.194 233.438H278.775C278.239 233.438 277.801 232.911 277.801 232.266C277.801 231.619 278.239 231.09 278.775 231.09Z" fill="#FFFF00" stroke="black" stroke-width="0.5"/>
<path d="M288.015 231.045C288.042 226.076 291.408 224.67 291.425 224.672C291.426 224.672 294.938 226.122 294.966 231.045H288.015" fill="#FFFF00"/>
<path d="M288.015 231.045C288.042 226.076 291.408 224.67 291.425 224.672C291.426 224.672 294.938 226.122 294.966 231.045H288.015" stroke="black" stroke-width="0.5"/>
<path d="M279.315 217.575H303.682C304.196 217.575 304.616 218.053 304.616 218.632C304.616 219.213 304.196 219.689 303.682 219.689H279.315C278.802 219.689 278.381 219.216 278.381 218.632C278.381 218.053 278.802 217.575 279.315 217.575Z" fill="#FFFF00" stroke="black" stroke-width="0.5"/>
<path d="M279.825 219.705H303.132C303.623 219.705 304.025 220.18 304.025 220.761C304.025 221.343 303.623 221.818 303.132 221.818H279.825C279.334 221.818 278.932 221.343 278.932 220.761C278.932 220.18 279.334 219.705 279.825 219.705Z" fill="#FFFF00" stroke="black" stroke-width="0.5"/>
<path d="M287.355 203.82L289.195 203.823V205.13H290.538V203.794L292.423 203.8V205.131H293.769V203.795H295.656L295.653 206.812C295.653 207.286 295.272 207.593 294.83 207.593H288.213C287.768 207.593 287.358 207.237 287.357 206.803L287.353 203.821H287.354L287.355 203.82Z" fill="#FFFF00" stroke="black" stroke-width="0.5"/>
<path d="M294.285 207.855L294.7 217.532L288.246 217.508L288.673 207.83L294.285 207.855" fill="#FFFF00"/>
<path d="M294.285 207.855L294.7 217.532L288.246 217.508L288.673 207.83L294.285 207.855" stroke="black" stroke-width="0.5"/>
<path d="M286.41 212.34L286.607 217.556L280.419 217.559L280.594 212.34H286.411H286.41L286.41 212.34Z" fill="#FFFF00" stroke="black" stroke-width="0.5"/>
<path d="M279.45 208.56L281.249 208.565V209.873H282.565V208.534L284.409 208.54V209.874H285.728V208.535L287.574 208.538L287.571 211.555C287.571 212.026 287.198 212.333 286.766 212.333H280.291C279.857 212.333 279.454 211.98 279.452 211.545L279.448 208.562H279.449L279.45 208.56Z" fill="#FFFF00" stroke="black" stroke-width="0.5"/>
<path d="M290.85 210.915C290.81 209.974 292.165 209.964 292.149 210.915V213.22H290.85V210.916" fill="black"/>
<path d="M282.855 214.26C282.85 213.352 284.11 213.333 284.094 214.26V216.041H282.855V214.261" fill="black"/>
<path d="M348.954 303.609V303.616C348.954 306.934 350.228 309.957 352.272 312.15C354.319 314.351 357.14 315.717 360.225 315.717C363.325 315.717 366.14 314.36 368.179 312.169C370.216 309.981 371.482 306.961 371.482 303.629V287.477L348.994 287.459L348.953 303.608" fill="#003399"/>
<path d="M354.111 295.831C355.342 295.831 356.34 294.833 356.34 293.602C356.34 292.371 355.342 291.373 354.111 291.373C352.88 291.373 351.882 292.371 351.882 293.602C351.882 294.833 352.88 295.831 354.111 295.831Z" fill="white"/>
<path d="M366.588 295.842C367.819 295.842 368.817 294.844 368.817 293.613C368.817 292.382 367.819 291.384 366.588 291.384C365.357 291.384 364.359 292.382 364.359 293.613C364.359 294.844 365.357 295.842 366.588 295.842Z" fill="white"/>
<path d="M360.337 301.831C361.568 301.831 362.566 300.833 362.566 299.602C362.566 298.371 361.568 297.373 360.337 297.373C359.106 297.373 358.108 298.371 358.108 299.602C358.108 300.833 359.106 301.831 360.337 301.831Z" fill="white"/>
<path d="M354.111 308.103C355.342 308.103 356.34 307.105 356.34 305.874C356.34 304.643 355.342 303.645 354.111 303.645C352.88 303.645 351.882 304.643 351.882 305.874C351.882 307.105 352.88 308.103 354.111 308.103Z" fill="white"/>
<path d="M366.575 308.086C367.806 308.086 368.804 307.088 368.804 305.857C368.804 304.626 367.806 303.628 366.575 303.628C365.344 303.628 364.346 304.626 364.346 305.857C364.346 307.088 365.344 308.086 366.575 308.086Z" fill="white"/>
</svg>
