<svg width="900" height="600" viewBox="0 0 900 600" fill="none" xmlns="http://www.w3.org/2000/svg">
<path d="M900 0H0V600H900V0Z" fill="#EE1C25"/>
<path d="M900 0H0V400H900V0Z" fill="#0B4EA2"/>
<path d="M900 0H0V200H900V0Z" fill="white"/>
<path d="M316.255 463.5C262.474 437.595 185.545 386.177 185.545 284.467C185.545 182.756 190.408 136.5 190.408 136.5H316.255H442.105C442.105 136.5 446.969 182.756 446.969 284.467C446.969 386.177 370.04 437.595 316.255 463.5Z" fill="white"/>
<path d="M316.255 450C266.915 426.234 196.338 379.062 196.338 285.749C196.338 192.436 200.799 150 200.799 150H316.255H431.714C431.714 150 436.177 192.437 436.177 285.749C436.177 379.062 365.599 426.234 316.256 450H316.255Z" fill="#EE1C25"/>
<path d="M326.808 261.284C340.168 261.5 366.234 262.023 389.443 254.256C389.443 254.256 388.83 262.562 388.83 272.237C388.83 281.914 389.443 290.219 389.443 290.219C368.154 283.094 341.863 282.946 326.808 283.137V334.676H305.705V283.137C290.651 282.946 264.36 283.095 243.07 290.219C243.07 290.219 243.683 281.914 243.683 272.236C243.683 262.561 243.07 254.256 243.07 254.256C266.28 262.022 292.345 261.499 305.705 261.283V228.916C293.528 228.808 275.982 229.389 256.142 236.028C256.142 236.028 256.755 227.723 256.755 218.046C256.755 208.37 256.142 200.065 256.142 200.065C275.952 206.693 293.478 207.284 305.651 207.179C305.025 186.681 299.054 160.847 299.054 160.847C299.054 160.847 311.343 161.806 316.255 161.806C321.173 161.806 333.459 160.847 333.459 160.847C333.459 160.847 327.489 186.681 326.862 207.177C339.036 207.283 356.561 206.692 376.371 200.063C376.371 200.063 375.758 208.369 375.758 218.044C375.758 227.721 376.371 236.026 376.371 236.026C356.532 229.387 338.984 228.806 326.808 228.914V261.281L326.808 261.284Z" fill="white"/>
<path d="M316.25 329.094C291.403 329.094 278.094 363.563 278.094 363.563C278.094 363.563 270.71 347.219 250.438 347.219C236.721 347.219 226.613 359.42 220.188 370.719C245.142 410.424 284.956 434.926 316.25 450C347.549 434.925 387.389 410.429 412.344 370.719C405.918 359.42 395.81 347.219 382.094 347.219C361.82 347.219 354.406 363.563 354.406 363.563C354.406 363.563 341.099 329.094 316.25 329.094H316.25Z" fill="#0B4EA2"/>
</svg>
