<svg width="900" height="600" viewBox="0 0 900 600" fill="none" xmlns="http://www.w3.org/2000/svg">
<path d="M900 0H0V600H900V0Z" fill="#E41E20"/>
<path d="M385.835 116.645C379.584 116.547 369.21 118.505 369.442 122.983C352.031 120.198 350.218 126.91 351.242 132.883C352.898 130.512 354.915 129.225 356.465 128.983C358.787 128.623 361.216 129.323 363.697 130.745C366.178 132.167 368.911 134.463 370.126 135.883C363.981 137.254 359.233 136.369 354.416 135.582C352.041 135.195 348.717 133.948 346.742 132.657C344.766 131.367 344.144 130.152 341.036 127.182C337.372 123.681 333.473 124.667 334.688 130.107C337.498 135.16 342.192 137.414 348.108 138.32C350.954 138.756 355.194 139.703 360.001 139.707C364.807 139.712 370.203 139.059 373.139 139.632C371.375 140.666 369.379 142.448 365.425 143.157C361.403 143.879 355.289 140.925 351.563 140.12C352.036 143.046 355.991 145.782 363.777 147.207C376.572 149.808 387.204 151.784 394.233 155.345C401.261 158.906 405.693 163.364 408.858 166.857C415.156 173.809 415.487 179.146 415.889 180.32C417.185 191.427 413.035 197.674 405.322 199.595C401.465 200.555 394.615 198.747 392.103 195.995C389.592 193.243 387.148 188.514 387.844 181.107C388.521 178.202 392.081 170.634 389.05 169.07C375.085 161.866 358.127 154.581 345.858 150.245C342.504 149.06 339.742 153.314 338.666 154.97C317.823 152.601 299.031 139.437 290.572 125.42C284.811 115.874 275.315 125.44 276.911 134.458C279.488 144.523 287.705 151.8 297.563 156.958C307.681 162.157 320.328 167.274 333.121 167.008C340.013 168.225 339.945 176.547 331.675 178.108C315.499 178.203 302.595 177.827 290.411 166.858C281.17 158.982 275.967 168.366 278.639 173.683C283.166 190.073 308.219 194.662 333.563 189.358C343.377 187.841 337.501 197.656 334.728 197.758C324.138 204.844 305.179 211.779 288.483 197.683C280.842 192.222 275.677 196.812 278.518 204.695C285.927 225.248 314.266 220.931 333.724 210.808C338.732 208.202 343.277 214.264 337.179 218.87C312.982 234.651 300.884 234.83 289.969 228.77C276.305 223.741 275.103 237.886 283.219 242.533C292.24 247.698 315.195 243.825 332.036 233.945C339.256 228.935 339.583 236.769 335.009 239.87C315.024 255.99 307.147 260.235 286.313 257.608C275.982 256.856 276.137 268.744 284.264 273.395C295.359 279.746 317.027 269.204 333.844 256.183C340.922 252.653 342.085 258.442 338.585 265.295C328.31 277.395 318.666 284.529 309.376 287.833C300.086 291.136 291.15 290.61 284.826 288.582C277.112 286.108 276.144 293.591 280.407 300.395C282.976 304.495 293.624 305.811 305.117 302.007C316.61 298.204 328.948 289.284 337.42 278.832C344.791 272.809 343.874 280.9 340.514 286.595C323.55 311.625 308.034 320.91 287.599 319.332C278.538 317.896 276.48 324.472 282.255 330.545C292.396 338.394 305.076 338.148 316.166 330.394C326.025 321.523 344.886 302.418 354.777 292.182C361.748 286.996 363.974 292.108 361.929 302.644C360.069 308.678 355.413 315.032 342.724 319.669C334.055 324.287 340.565 330.651 347.063 330.769C350.639 330.834 357.901 326.933 363.456 321.094C370.764 313.414 371.199 308.257 375.228 296.307C379.035 290.482 385.835 293.201 385.835 299.307C382.574 311.277 379.772 313.424 373.179 318.32C366.873 323.845 377.57 325.687 381.175 323.419C391.602 316.859 395.409 308.374 398.893 300.657C401.408 295.087 408.704 297.787 405.322 306.882C397.24 328.617 383.96 337.176 360.724 341.569C358.369 341.96 356.933 343.257 357.751 345.807C360.869 348.829 363.994 351.571 367.112 354.582C352.744 358.486 341.071 360.68 326.692 364.595C319.638 360.278 313.939 356.616 306.884 352.295C305.024 348.236 304.157 342.041 293.746 346.407C286.691 343.366 283.437 344.482 279.523 347.532C285.174 347.729 287.633 349.142 289.849 351.545C292.742 358.656 299.413 359.343 306.241 357.32C310.684 360.813 313.05 363.492 317.491 366.995C309.2 366.73 303.423 366.593 295.152 366.358C287.257 358.446 280.955 358.879 275.304 365.083C270.997 365.701 269.171 365.787 266.224 370.67C270.859 368.895 273.775 368.363 275.786 370.296C284.18 374.837 289.664 373.824 293.826 370.296C301.925 370.758 309.222 371.149 317.331 371.646C314.352 374.008 310.265 375.262 307.286 377.646C295.123 374.398 288.775 378.769 286.634 388.033C285.004 391.772 284.241 395.621 284.947 399.621C286.124 395.963 288.017 392.817 291.496 390.846C302.337 393.416 306.414 389.285 307.005 383.233C312.231 379.254 320.111 378.376 325.326 374.346C331.424 376.168 334.372 377.296 340.514 379.108C342.697 385.301 347.638 387.753 355.661 386.158C365.211 386.438 363.525 390.095 364.299 393.021C366.838 388.819 366.767 384.734 360.884 381.021C358.744 375.594 354.002 373.126 347.786 376.258C341.935 374.708 340.397 372.479 334.567 370.933C349.312 366.547 359.771 365.56 374.505 361.183C378.193 364.43 381.116 366.761 384.831 369.658C386.789 370.749 388.663 371.023 389.813 369.658C399.045 357.186 403.169 346.195 411.75 337.971C415.029 334.568 419.171 329.977 423.764 328.858C426.06 328.299 428.876 328.64 430.675 330.471C432.473 332.301 433.885 335.675 433.286 340.708C432.426 347.933 430.556 350.214 428.384 354.546C426.213 358.877 423.559 361.541 420.831 364.858C415.375 371.492 408.176 375.353 403.916 377.946C395.394 383.132 391.79 380.862 385.192 380.533C376.665 381.426 374.396 385.303 381.376 390.658C387.9 393.827 393.765 394.218 398.532 393.396C402.624 392.689 407.414 387.759 410.827 385.108C414.668 380.966 421.036 385.878 416.693 390.696C408.799 399.449 400.912 405.221 391.179 405.096C380.952 406.38 382.865 411.744 389.652 414.358C401.868 419.063 412.898 410.25 418.501 404.458C422.823 400.044 425.894 399.872 425.13 406.708C420.839 419.084 414.974 423.865 405.402 424.483C397.638 423.81 397.555 429.404 403.233 433.183C416.167 441.539 425.535 427.309 429.911 418.708C433.03 410.949 437.813 414.639 438.309 421.033C438.373 429.576 434.237 436.552 423.161 445.295C431.636 457.897 441.515 470.715 450.001 483.358L475.721 215.991L450.007 173.748C447.329 171.441 438.271 161.481 435.904 160.098C435.041 159.238 434.516 158.629 435.784 158.186C437.01 157.757 439.88 157.277 441.811 156.948C436.357 151.85 431.684 150.215 421.36 147.424C423.876 146.424 426.323 147.006 433.735 146.674C430.792 142.776 424.22 136.804 415.735 133.924C421.338 130.206 422.43 129.956 427.989 125.599C418.364 124.962 410.144 123.25 401.873 120.911C396.644 118.629 389.382 116.692 385.842 116.636L385.835 116.645ZM386.76 127.108C391.846 127.108 394.997 128.735 394.997 130.708C394.997 132.715 391.846 134.345 386.76 134.345C381.694 134.345 378.483 132.566 378.483 130.558C378.484 128.585 381.694 127.108 386.76 127.108Z" fill="black"/>
</svg>
