<svg width="900" height="600" viewBox="0 0 900 600" fill="none" xmlns="http://www.w3.org/2000/svg">
<path d="M900 0H0V600H900V0Z" fill="#244AA5"/>
<path d="M355.815 284.595C355.815 284.595 357.484 283.545 358.095 283.405C358.706 283.265 360.863 282.635 360.863 282.635C360.863 282.635 362.248 281.97 362.981 281.97C363.754 281.97 365.261 282.74 365.749 283.405C366.197 284.07 368.64 285.225 368.64 285.225C368.64 285.225 370.309 285.75 370.635 285.225C370.961 284.7 371.693 284.315 372.467 284.315C373.241 284.315 373.363 283.65 373.363 283.125C373.363 282.6 373.688 281.935 374.258 281.305C374.869 280.64 376.091 280.255 376.091 280.255C376.091 280.255 377.76 279.59 377.923 278.68C378.086 277.77 379.755 277.105 380.691 276.965C381.587 276.825 380.691 276.44 383.134 276.685C385.577 276.965 385.903 276.16 386.025 275.495C386.188 274.83 386.025 274.165 387.572 274.305C389.119 274.445 389.852 274.445 389.852 273.64C389.852 272.87 391.236 272.45 388.793 271.82C386.351 271.155 386.513 271.68 386.351 270.63C386.188 269.58 386.351 269.72 384.681 269.58C383.012 269.44 383.908 268.67 383.786 267.865C383.623 267.095 383.175 266.675 382.89 266.15C382.564 265.625 381.668 265.625 381.668 264.855C381.668 264.085 381.506 263.665 380.61 263.665C379.714 263.665 379.388 263.665 379.388 262.895C379.388 262.125 379.551 261.46 380.447 261.46C381.343 261.46 381.831 260.795 381.668 260.025C381.506 259.255 381.506 257.54 381.506 257.54L382.727 256.21C382.727 256.21 386.391 253.445 386.717 252.92C387.043 252.395 388.264 252.01 388.834 253.06C389.445 254.11 389.73 254.39 390.218 254.88C390.666 255.405 392.051 255.02 392.336 254.495C392.661 253.97 392.783 252.045 393.598 250.995C394.412 249.98 394.982 249.455 395.186 248.615C395.389 247.775 395.796 247.075 396.773 247.075C397.751 247.075 398.361 245.885 398.361 245.185C398.361 244.485 398.768 243.82 399.949 243.645C401.13 243.47 401.741 242.805 402.148 243.82C402.555 244.835 402.962 244.835 403.736 245.185C404.55 245.535 405.731 246.025 406.301 245.535C406.911 245.01 407.196 244.17 408.092 244.695C408.947 245.22 409.558 244.695 409.761 243.68C409.965 242.665 410.168 241.3 410.168 241.3C410.168 241.3 410.372 240.6 411.756 240.6C413.141 240.6 412.163 239.76 412.937 239.235C413.751 238.71 413.751 238.22 414.728 238.535C415.706 238.885 417.293 238.115 416.52 237.275C415.706 236.435 413.955 235.07 414.932 234.02C415.909 233.005 416.316 231.29 415.339 231.115C414.362 230.94 412.937 231.29 412.774 230.275C412.571 229.26 412.163 228.56 413.385 228.385C414.566 228.21 416.561 228.21 417.171 227.685C417.782 227.16 419.736 226.845 419.736 225.305C419.736 223.765 420.347 223.59 420.551 222.75C420.754 221.91 420.754 220.125 419.94 219.285C419.126 218.445 417.945 217.22 417.741 216.73C417.538 216.205 416.764 215.365 415.543 215.015C414.362 214.665 413.344 214.49 413.344 213.65C413.344 212.81 414.158 213.825 414.158 211.585C414.158 209.38 412.571 209.03 412.571 209.03L410.168 207.665C410.168 207.665 405.934 206.615 404.794 206.615C403.654 206.615 402.351 205.495 403.654 204.795C404.957 204.095 405.283 202.835 404.794 201.855C404.306 200.875 403.98 200.175 402.188 199.755C400.397 199.335 399.908 198.915 400.723 197.935C401.537 196.955 401.7 196.255 402.677 196.955C403.654 197.655 405.283 197.935 406.586 197.375C407.888 196.815 408.377 196.395 409.028 196.955C409.68 197.515 410.494 198.075 411.471 197.235C412.448 196.395 414.24 196.255 415.054 196.675C415.868 197.095 417.823 196.955 418.474 196.675C419.126 196.395 420.428 195.415 420.428 194.855C420.428 194.295 421.243 193.315 422.057 192.895C422.871 192.475 423.848 191.075 424.663 191.075C425.477 191.075 425.803 190.235 425.803 189.675C425.803 189.115 426.454 187.995 426.617 187.575C426.78 187.155 428.408 186.56 429.548 187.435C430.688 188.275 432.154 188.555 432.154 188.555C432.154 188.555 433.783 188.835 434.597 188.555C435.411 188.275 436.551 187.995 437.691 188.695C438.831 189.395 440.46 189.395 440.46 189.395C440.46 189.395 440.786 188.275 440.786 187.715C440.786 187.155 441.111 186.175 440.46 185.755C439.808 185.335 438.994 184.775 440.297 183.935C441.6 183.095 441.6 183.235 442.903 183.235C444.206 183.235 445.02 183.375 445.997 183.375C446.974 183.375 448.603 184.215 448.603 185.055C448.603 185.895 449.254 186.455 450.068 186.875C450.883 187.295 451.86 187.715 451.534 188.415C451.208 189.115 451.208 189.675 452.186 189.535C453.163 189.395 453.488 189.955 453.488 190.655C453.488 191.355 453.814 191.775 454.791 192.055C455.768 192.335 456.257 192.895 456.257 193.595C456.257 194.295 456.094 194.715 456.42 195.415C456.746 196.115 457.723 197.235 457.723 197.235C457.723 197.235 459.514 199.195 457.234 198.215C454.954 197.235 454.466 196.815 453.651 196.955C452.837 197.095 452.348 197.515 452.348 197.515C452.348 197.515 451.208 197.795 450.394 197.795C449.58 197.795 448.766 199.335 450.068 199.615C451.371 199.895 451.86 200.175 451.86 201.155C451.86 202.135 451.371 201.855 450.72 202.555C450.068 203.255 449.58 202.835 448.44 202.835C447.3 202.835 446.974 203.675 446.974 204.515C446.974 205.355 447.463 205.215 447.951 205.915C448.44 206.615 449.254 206.755 450.068 206.055C450.883 205.355 451.534 204.935 452.023 206.195C452.511 207.455 453.163 207.455 454.14 207.455C455.117 207.455 455.443 207.455 456.257 207.035C457.071 206.615 458.048 207.035 458.211 208.155C458.374 209.275 459.188 209.415 460.003 209.835C460.817 210.255 461.306 210.535 461.468 211.235C461.631 211.935 462.12 212.215 462.934 211.795C463.748 211.375 465.051 211.095 465.54 211.655C466.028 212.215 466.843 213.335 466.843 213.335L467.006 214.735L470.1 215.715C470.1 215.715 470.426 216.415 470.426 216.975C470.426 217.535 470.914 217.815 471.728 217.675C472.543 217.535 474.008 217.675 474.008 217.675C474.008 217.675 475.148 217.255 475.148 216.415C475.148 215.575 475.637 215.295 476.451 215.295C477.266 215.295 479.057 215.855 479.546 215.015C480.034 214.175 481.5 213.895 482.64 214.315C483.78 214.735 486.711 215.855 486.711 215.855C486.711 215.855 486.386 215.995 487.363 217.395C488.34 218.795 490.131 218.795 490.131 218.795C490.131 218.795 490.294 220.055 490.62 220.615C490.946 221.175 492.411 221.455 493.226 220.895C494.04 220.335 495.18 219.635 496.157 219.635C497.134 219.635 497.786 219.635 497.786 219.075C497.786 218.515 496.808 218.095 496.808 217.255C496.808 216.415 497.786 216.415 497.948 215.575C498.111 214.735 499.088 215.575 499.74 215.995C500.391 216.415 501.206 217.115 501.206 217.675C501.206 218.235 502.508 220.195 503.323 220.475C504.137 220.755 506.254 220.895 506.906 220.195C507.557 219.495 509.186 219.215 509.023 220.895C508.86 222.575 508.534 222.715 509.674 223.275C510.814 223.835 510.977 225.795 510 226.355C509.023 226.915 508.697 227.055 508.697 228.035C508.697 229.015 508.371 230.135 509.186 230.695C510 231.255 510.488 231.675 510.488 232.235C510.488 232.795 511.466 235.315 511.466 235.315C511.466 235.315 511.954 237.835 511.791 238.395C511.628 238.955 511.303 239.935 512.768 239.795C514.234 239.655 514.56 239.655 514.56 240.775C514.56 241.895 515.048 242.315 514.234 242.735C513.42 243.155 512.931 244.555 513.746 244.835C514.56 245.115 515.211 245.535 515.374 246.095C515.537 246.655 516.84 247.635 517.654 247.075C518.468 246.515 518.631 246.235 519.283 246.095C519.934 245.955 520.423 245.535 519.771 244.835C519.12 244.135 518.957 243.435 519.608 243.015C520.26 242.595 520.586 241.195 520.586 241.195C520.586 241.195 521.563 239.935 522.703 241.195C523.843 242.455 524.006 242.035 524.82 242.035C525.634 242.035 525.96 242.735 525.96 243.435C525.96 244.135 527.588 243.995 527.588 245.115C527.588 246.235 527.914 248.895 527.914 248.895C527.914 248.895 527.914 250.435 528.891 250.995C529.868 251.555 529.706 251.695 529.217 252.395C528.728 253.095 528.891 254.215 528.891 254.775C528.891 255.335 529.217 255.615 528.403 256.175C527.588 256.735 527.263 257.435 527.751 258.275C528.24 259.115 528.077 259.675 529.38 260.655C530.683 261.635 530.52 262.055 530.52 262.755C530.52 263.455 531.823 264.435 531.823 265.135C531.823 265.835 532.8 266.675 533.614 266.815C534.428 266.955 535.406 268.215 535.406 268.915C535.406 269.615 535.568 271.435 535.568 271.435C535.568 271.435 535.406 271.855 536.383 271.855C537.36 271.855 538.011 272.835 538.337 271.715C538.663 270.595 539.64 270.455 540.291 270.175C540.943 269.895 542.246 269.335 542.897 269.755C543.548 270.175 544.363 270.175 545.014 270.175C545.666 270.175 548.76 270.315 548.76 270.315C548.76 270.315 549.574 270.175 550.063 271.295C550.551 272.415 552.017 273.675 551.203 274.235C550.388 274.795 550.388 275.915 551.366 275.915C552.343 275.915 553.32 275.915 553.32 276.615C553.32 277.315 553.483 277.875 554.297 277.455C555.111 277.035 555.6 276.895 555.926 277.455C556.251 278.015 556.903 278.015 557.717 278.435C558.531 278.855 558.857 278.575 559.346 278.015C559.834 277.455 561.788 276.895 561.788 276.895C561.788 276.895 564.394 276.335 565.371 276.615C566.348 276.895 567.651 277.455 567.651 277.455C567.651 277.455 568.303 278.855 567.977 279.695C567.651 280.535 567.326 280.395 567.651 281.655C567.977 282.915 567.326 283.055 566.674 282.915C566.023 282.775 565.371 282.775 565.371 283.895C565.371 285.015 564.72 285.295 564.72 286.275C564.72 287.255 564.72 287.115 564.068 287.535C563.417 287.955 563.254 288.655 564.231 288.795C565.208 288.935 564.883 289.915 564.883 290.475C564.883 291.035 564.72 292.295 564.72 292.295C564.72 292.295 564.883 292.995 563.743 292.995C562.603 292.995 561.626 292.855 561.463 293.555C561.3 294.255 559.997 295.375 561.137 296.075C562.277 296.775 561.951 297.195 561.3 297.475C560.648 297.755 560.16 299.155 561.463 299.575C562.766 299.995 562.603 300.415 561.788 300.975C560.974 301.535 559.346 301.955 559.346 302.795C559.346 303.635 559.02 303.635 558.043 303.775C557.066 303.915 556.577 305.035 557.717 306.435C558.857 307.835 559.183 307.555 559.997 307.555C560.811 307.555 560.811 306.435 560.811 306.435C560.811 306.435 563.58 306.575 564.394 306.575C565.208 306.575 566.348 306.575 567 306.155C567.651 305.735 569.443 305.035 569.443 306.295C569.443 307.555 569.768 307.415 570.583 307.975C571.397 308.535 571.56 308.115 572.211 308.955C572.863 309.795 573.026 309.095 573.514 308.115C574.003 307.135 574.98 306.155 575.794 307.275C576.608 308.395 576.608 308.115 577.586 308.115C578.563 308.115 578.888 308.535 578.888 309.235C578.888 309.935 579.866 309.935 581.006 309.795C582.146 309.655 582.308 310.355 582.797 311.055C583.286 311.755 583.448 311.615 584.1 311.615C584.751 311.615 585.403 311.615 585.891 311.055C586.38 310.495 587.031 309.795 587.683 310.635C588.334 311.475 589.637 311.335 589.963 310.355C590.288 309.375 591.754 308.535 592.568 309.655C593.383 310.775 594.034 310.775 594.848 310.915C595.663 311.055 596.803 311.055 597.291 311.755C597.78 312.455 599.408 313.575 598.268 314.415C597.128 315.255 595.826 316.375 596.803 316.655C597.78 316.935 598.431 317.215 599.083 317.915C599.734 318.615 601.851 318.895 602.828 319.035C603.806 319.175 604.62 319.315 605.76 318.475C606.9 317.635 608.04 317.635 607.877 318.755C607.714 319.875 608.366 321.135 608.366 321.135C608.366 321.135 609.18 322.955 609.18 323.655C609.18 324.355 609.017 324.495 610.483 325.335C611.948 326.175 611.786 326.735 612.926 325.895C614.066 325.055 614.391 324.635 614.391 323.935C614.391 323.235 614.391 321.695 614.391 321.695C614.391 321.695 616.02 321.415 616.671 320.995C617.323 320.575 619.928 319.315 620.58 319.875C621.231 320.435 622.046 320.295 622.697 320.015C623.348 319.735 624.651 319.735 625.303 319.735C625.954 319.735 627.094 319.875 628.397 318.895C629.7 317.915 629.7 318.195 630.514 318.895C631.328 319.595 631.328 320.435 630.84 320.995C630.351 321.555 630.84 322.815 631.98 322.815C633.12 322.815 633.446 323.375 633.446 324.075C633.446 324.775 633.608 325.755 633.771 326.315C633.934 326.875 633.934 327.155 635.726 327.575C637.517 327.995 637.191 328.975 637.517 329.675C637.843 330.375 637.843 330.935 636.866 330.935C635.888 330.935 635.563 331.355 635.4 332.055C635.237 332.755 633.771 333.035 633.771 333.035L632.306 332.755C632.306 332.755 631.328 332.755 630.84 333.315C630.351 333.875 629.374 334.995 630.026 335.975C630.677 336.955 630.677 337.515 630.026 337.935C629.374 338.355 629.048 340.455 628.397 340.035C627.746 339.615 626.931 340.175 626.28 340.455C625.628 340.735 625.791 342.695 627.094 343.395C628.397 344.095 628.723 345.075 628.723 345.075L630.188 347.175C630.188 347.175 629.7 347.595 629.374 348.295C629.048 348.995 628.071 350.395 629.048 350.675C630.026 350.955 629.537 352.495 628.56 352.495C627.583 352.495 626.443 352.075 626.28 353.195C626.117 354.315 625.628 354.035 624.651 353.895C623.674 353.755 621.231 353.195 620.58 354.315C619.928 355.435 619.766 355.855 618.626 355.715C617.486 355.575 617.974 357.395 618.3 358.095C618.626 358.795 619.766 359.775 619.766 359.775C619.766 359.775 620.743 360.475 620.743 361.875C620.743 363.275 620.091 363.135 619.44 362.155C618.788 361.175 617.486 361.315 617.323 362.435C617.16 363.555 616.997 365.235 615.857 365.235C614.717 365.235 614.228 365.515 613.74 366.075C613.251 366.635 612.437 367.615 612.437 368.175C612.437 368.735 612.274 369.295 611.46 369.435C610.646 369.575 610.483 371.115 610.483 371.115C610.483 371.115 608.528 371.395 608.366 372.095C608.203 372.795 608.528 373.915 606.9 374.055C605.271 374.195 604.294 375.175 603.806 375.875C603.317 376.575 603.154 377.135 603.806 377.835C604.457 378.535 604.946 380.775 605.76 381.195C606.574 381.615 607.226 381.755 607.063 382.875C606.9 383.995 605.923 384.835 607.226 384.835C608.528 384.835 609.343 385.115 608.854 386.095C608.366 387.075 608.366 387.215 607.388 387.635C606.411 388.055 605.923 388.055 605.923 389.175C605.923 390.295 606.248 390.295 605.434 390.715C604.62 391.135 604.62 391.695 604.62 392.535C604.62 393.375 604.294 393.095 603.317 394.075C602.34 395.055 601.037 395.055 600.223 394.775C599.408 394.495 599.246 394.495 599.083 393.655C598.92 392.815 597.454 392.815 596.64 392.955C595.826 393.095 594.686 393.935 594.686 393.935C594.686 393.935 593.22 394.775 593.871 395.475C594.523 396.175 594.197 397.295 593.057 397.155C591.917 397.015 589.311 398.275 588.497 397.015C587.683 395.755 585.403 394.915 585.077 396.595C584.751 398.275 586.054 398.135 585.891 399.815C585.728 401.495 585.403 401.495 584.751 402.055C584.1 402.615 584.1 403.035 583.937 403.735C583.774 404.435 583.611 405.975 584.751 406.535C585.891 407.095 586.38 408.635 586.38 409.475C586.38 410.315 586.38 411.155 587.52 411.155C588.66 411.155 589.637 411.015 589.8 410.035C589.963 409.055 592.243 408.495 592.406 410.455C592.568 412.415 592.568 413.395 593.383 414.235C594.197 415.075 594.848 416.195 595.5 416.615C596.151 417.035 597.251 420.605 597.251 420.605C595.663 420.92 595.256 422.845 594.238 423.23C593.668 423.44 593.057 423.265 592.528 423.615C592.121 423.895 592.121 424.42 591.551 424.665C590.37 425.155 590.573 423.44 589.148 424.07C587.846 424.63 587.723 426.03 585.851 425.435C584.873 425.12 584.263 421.55 583.978 420.71C583.815 420.22 582.797 418.75 582.471 418.295C581.372 416.755 579.173 418.295 578.481 417.84C577.382 417.14 577.871 415.95 576.201 415.81C572.822 415.6 575.224 417.735 573.799 418.225C571.071 419.135 571.071 415.845 569.036 417.35C568.262 417.91 570.257 418.26 569.768 419.24C569.361 420.045 567.366 421.27 567.488 422.215C567.651 423.51 569.158 423.895 569.606 424.98C570.827 427.85 568.791 429.845 565.738 427.605C564.028 426.345 563.702 424 561.056 424.175C560.445 424.21 560.241 424.805 559.631 424.875C559.02 424.91 558.531 424.35 557.88 424.525C556.903 424.84 557.758 425.47 557.554 425.995C557.554 425.995 556.251 427.01 556.048 427.29C555.315 428.2 555.559 429.005 554.501 429.74C553.605 430.37 552.913 429.985 551.936 430.965C550.918 431.98 550.836 433.485 549.533 434.465C548.882 434.955 548.434 432.995 547.62 434.29C547.498 434.465 547.376 434.64 547.294 434.815C547.091 435.2 547.05 435.375 547.253 435.795C548.963 438.875 545.381 440.03 544.281 442.2C543.793 443.11 545.136 443.95 544.607 444.65C544.241 445.175 542.653 446.61 542.531 446.925C542.408 447.24 542.246 447.94 541.961 448.185C541.676 448.465 540.698 448.325 540.617 448.745C540.536 449.235 541.635 449.62 541.92 449.935C542.286 450.32 541.757 450.845 541.879 450.95C543.711 452.665 542.612 452.14 543.548 453.645C543.671 453.855 544.241 453.47 544.444 454.03C544.648 454.555 543.996 454.52 544.241 455.115C544.281 455.29 545.584 456.865 545.584 456.9C545.666 457.425 543.101 458.51 542.531 458.51C540.983 458.545 543.874 455.535 541.35 455.535C540.251 455.535 540.169 457.88 539.884 458.125C539.762 458.23 538.744 458.125 538.5 458.125C536.871 458.125 535.813 460.015 535.161 460.19C534.754 460.33 533.858 459.98 533.166 460.085C532.515 460.19 531.741 460.785 531.131 460.785C530.723 460.785 530.52 460.54 530.194 460.365C529.461 459.98 528.118 459.805 527.303 459.56C526.856 459.42 526.001 460.085 525.716 459.91C525.186 459.595 526.082 458.72 524.861 458.09C524.698 458.02 523.802 455.99 523.843 455.885C524.25 454.555 524.698 453.12 524.494 451.72C524.25 450.285 521.848 449.06 521.196 447.905C520.708 447.03 520.26 444.72 519.323 444.125C518.306 443.495 517.369 442.27 516.84 441.325C516.677 441.045 517.166 440.555 516.799 440.065C516.392 439.54 515.618 439.33 515.415 438.63C515.252 438.07 515.415 436.25 514.723 435.865C513.949 435.445 508.982 434.885 507.761 434.78C507.109 434.745 506.621 434.745 506.132 434.29C505.928 434.115 505.603 433.38 505.44 433.38C504.951 433.345 504.381 433.59 503.893 433.625C503.526 433.66 502.916 433.415 502.59 433.625C501.002 434.64 500.595 435.935 499.088 437.02C497.541 438.105 495.831 438.07 494.284 439.33C493.307 440.135 492.656 442.06 491.678 442.97C491.271 443.355 490.62 442.97 490.457 443.145C489.643 444.09 488.503 444.65 487.688 445.525C487.526 445.7 487.566 446.05 487.363 446.19L485.612 446.61C485.164 446.68 484.309 446.575 483.943 446.68C483.128 446.925 483.169 447.73 480.401 448.255C480.197 448.29 479.831 448.465 479.668 448.57C479.342 448.78 479.098 449.095 478.772 449.305C478.568 449.445 477.958 449.2 477.591 449.235C476.899 449.34 476.492 449.9 475.841 449.97C474.375 450.145 472.013 449.34 470.873 449.76C470.181 450.005 468.268 452 467.576 452.21C467.128 452.35 466.802 452.175 466.313 452C466.069 452.28 465.499 454.45 465.296 454.94C465.296 454.975 462.161 457.425 461.916 457.705C461.509 458.125 461.346 458.58 460.858 459.035C460.532 459.35 460.003 459.63 459.473 459.63C458.822 459.63 457.845 459.175 457.234 459.07C456.053 458.895 452.511 458.755 451.453 458.965C450.353 459.175 450.679 462.115 447.951 462.395C446.363 462.57 444.898 462.85 443.269 462.99C443.106 462.99 442.129 462.36 441.152 462.605C440.786 462.71 439.605 463.83 439.605 464.18V464.81C439.605 464.915 439.931 465.3 439.89 465.335C439.279 466 437.895 467.05 437.447 467.82C437.325 468.03 437.162 468.275 436.958 468.415C436.592 468.66 434.719 469.325 434.556 469.64C434.108 470.69 435.859 471.67 435.696 472.09C435.208 473.455 433.253 474.75 432.643 476.01C432.398 476.535 433.294 478.285 433.253 478.88C433.05 480.525 432.439 482.625 432.521 484.235C432.521 484.55 432.765 486.195 432.887 486.37C433.091 486.685 433.538 486.86 433.823 487.14C434.108 487.42 436.266 491.34 436.348 491.76C436.755 494.665 432.236 493.65 434.841 496.555C435.248 497.01 435.574 497.5 436.022 497.885C436.592 498.41 439.931 500.685 439.971 500.93C440.053 501.35 437.284 501.77 436.796 502.225C435.493 503.415 434.393 505.62 433.131 506.845C432.358 507.615 431.666 506.775 430.648 508.56C430.281 509.225 430.648 510.73 430.2 511.15C429.548 511.78 429.019 510.94 428.368 511.22C428.083 511.325 427.92 512.095 427.635 512.305C426.902 512.9 420.388 516.12 419.777 515.84C419.451 515.7 419.085 514.685 419.044 514.37C418.963 514.02 418.556 513.25 418.23 513.005C416.561 511.675 413.996 511.43 412.367 513.04C411.96 513.46 411.919 514.09 411.39 514.51C410.494 515.21 409.476 515.84 408.621 516.54C408.458 516.68 407.97 517.205 407.766 517.17C407.115 517.1 405.527 515.42 405.12 514.965C404.387 514.16 402.27 512.235 402.066 511.325C402.066 508.21 399.461 504.955 398.361 501.91L399.99 501.945C401.822 500.79 401.293 497.955 404.591 499.075C404.998 498.55 404.957 497.99 405.731 497.605C406.016 497.465 406.545 497.325 406.708 497.08C407.807 495.505 409.11 489.485 407.97 487.945C406.952 486.545 405.893 486.615 405.079 484.305C404.835 483.675 405.283 482.94 405.079 482.24C404.916 481.68 403.817 478.355 403.654 478.11C403.451 477.83 402.758 477.48 402.718 477.305C402.677 477.025 402.433 473.42 402.555 473.14C401.456 470.34 397.751 468.555 397.547 468.24C397.099 467.575 396.651 466.7 396.163 465.965C395.593 465.09 395.593 464.635 395.267 463.795C395.145 463.41 394.534 463.095 394.493 462.675C394.412 461.94 396.651 460.4 396.57 459.105C396.529 458.685 395.145 457.425 395.43 456.725C395.715 455.99 397.14 454.345 397.099 453.54C397.018 452.455 394.86 450.11 394.575 448.955C394.453 448.395 395.43 447.94 395.186 447.555C394.901 447.065 392.621 445.14 392.254 444.58C391.969 444.16 393.109 443.6 392.295 442.83C391.562 442.13 392.173 442.375 391.969 441.78C391.725 441.115 390.911 440.52 390.585 439.82C390.3 439.225 388.346 432.645 388.386 432.26C388.061 431.805 387.491 431.42 387.206 430.965C386.921 430.51 386.798 429.635 386.554 429.285C386.513 429.25 384.356 428.655 383.948 428.06C383.623 427.57 383.541 425.96 382.971 425.155C382.686 424.77 382.238 424.84 381.913 424.56C381.628 424.35 381.668 423.965 381.465 423.72C380.813 422.88 379.511 423.65 378.615 420.57C377.434 419.8 376.335 419.135 375.317 418.19C375.113 418.015 374.991 417.805 374.747 417.7C373.933 417.385 372.711 417.28 372.019 416.72C371.612 416.72 369.454 416.65 369.21 416.51C368.966 416.37 368.721 415.495 368.558 415.46C367.418 415.25 365.546 415.355 364.568 414.585C363.795 413.955 363.632 410.91 362.248 411.33C362.085 411.26 361.881 411.19 361.678 411.225C360.782 410.14 357.688 410 356.426 409.3C356.059 409.09 354.878 409.265 354.878 408.95C355.163 408.355 355.082 407.865 355.123 407.27C354.431 406.64 353.983 405.905 353.494 405.45C352.313 405.205 352.761 405.1 352.028 404.68C349.993 404.54 349.789 404.855 348.486 405.975C348.161 406.255 347.509 406.325 347.102 406.535C346.41 406.885 346.206 408.04 345.229 407.515C344.903 407.34 344.7 407.06 344.456 406.85C343.886 406.395 343.56 406.64 343.275 405.8C341.606 404.96 337.005 407.865 335.906 405.835C335.132 405.45 334.562 405.94 333.911 405.31C333.585 404.995 334.806 401.495 331.468 400.06C332.241 399.5 333.056 399.115 333.788 398.59C333.992 398.205 333.748 397.61 333.748 397.225C333.748 396.63 334.155 395.475 334.033 395.055C333.911 394.635 333.422 394.285 333.259 393.795C333.056 393.305 333.3 392.675 333.015 392.15C332.811 392.01 332.201 391.66 331.956 391.66C331.101 390.995 330.165 390.575 329.473 389.77C329.31 389.595 329.188 389.28 328.984 389.14C328.373 388.72 326.378 388.16 326.46 387.285C326.501 387.005 326.908 386.97 327.03 386.69C327.152 386.34 327.071 385.885 327.356 385.57C328.292 384.38 330.368 384.905 330.043 382.7C329.88 381.72 329.147 380.88 328.943 379.83C328.577 379.585 328.536 379.165 328.211 378.92C326.175 378.745 326.46 376.785 325.727 376.33C323.569 374.965 321.9 375.805 324.302 373.11C324.628 372.235 322.226 370.835 321.737 370.345C320.882 369.575 321.289 367.965 320.963 367.125C320.801 366.705 319.376 365.97 318.928 365.375C318.806 365.2 318.439 364.29 318.236 364.185L318.276 363.905C318.724 363.59 318.48 362.96 318.358 362.54C318.073 362.295 317.462 362.365 317.258 362.19C315.304 360.545 312.943 359.81 310.378 358.865C309.686 358.62 309.889 358.095 309.319 357.85C308.831 357.64 305.37 356.205 305.126 356.275C304.718 356.17 304.433 354.735 304.148 354.28C303.904 353.86 302.927 353.09 302.927 353.055C303.008 351.725 302.113 351.55 301.013 350.85C301.095 350.675 300.891 350.255 300.891 350.045C300.891 349.87 301.624 347.56 301.746 347.245C301.95 346.755 302.642 346.3 302.52 345.74C302.357 344.865 302.235 343.5 301.909 342.73C300.81 340 299.507 340.35 300.199 336.78C300.362 336.045 300.077 335.625 300.688 334.96C300.606 334.925 300.973 334.575 301.013 334.505C301.38 334.19 302.398 333.665 302.601 333.42C303.212 332.65 303.578 330.9 304.352 330.34C304.922 329.92 306.551 329.115 306.836 328.765C307.08 328.485 307.446 327.61 307.243 327.26C306.673 326.945 306.103 327.085 305.533 327.015C305.329 326.98 304.596 326.49 304.026 326.385C303.863 326.21 303.578 326 303.578 325.755L303.334 325.545C302.683 325.475 301.95 325.09 301.38 324.915C300.647 324.635 299.629 324.6 298.937 324.215C297.634 323.515 296.168 321.59 294.906 321.31C293.196 320.96 292.097 321.45 290.468 321.52C289.41 321.59 289.41 320.995 288.555 320.75C287.415 320.435 288.27 321.31 285.664 320.54C285.338 320.295 285.827 319.455 285.868 319.14C285.461 319.035 284.972 319.245 284.483 319.14C282.326 318.65 283.14 316.83 282.57 315.64C282.326 315.36 281.43 315.43 281.023 315.395C280.901 315.36 280.86 315.185 280.901 315.115L281.104 314.975C281.471 314.45 280.168 313.12 280.208 312.945C280.29 312.525 282.936 312.14 283.303 312.105C283.425 311.79 283.058 311.51 283.018 311.195C282.936 310.495 283.425 309.585 283.669 308.955L283.588 308.745C282.855 308.36 282.611 307.8 281.959 307.345C282 307.03 282.448 306.82 282.529 306.505C283.791 303.25 285.746 305.84 287.456 302.83C287.618 302.55 288.107 301.815 288.27 301.325L288.596 301.255C288.921 301.325 289.369 301.57 289.695 301.465C289.939 301.15 290.468 301.045 290.876 300.94L291.486 301.08C294.662 300.45 293.929 299.365 295.761 298.14C296.25 297.825 297.675 297.685 298.326 297.475C299.018 297.755 299.996 298.77 301.298 299.225C302.235 299.575 305.451 300.205 305.981 300.485C306.673 300.835 306.795 301.675 307.406 301.99C309.238 302.9 308.179 301.36 309.93 301.675C311.721 302.025 313.187 303.39 314.856 304.055C315.141 304.16 315.833 304.02 316.159 303.95C316.688 303.845 319.538 303.355 319.823 303.46C320.149 303.565 320.638 303.845 320.963 303.915C321.371 303.985 321.696 303.18 321.981 303.215C323.203 303.39 323.243 303.845 324.872 303.705C324.953 303.705 325.727 299.435 326.501 299.225C326.948 299.12 328.17 300.24 328.536 300.31C329.147 300.45 328.496 299.435 328.455 299.365C328.292 299.015 327.437 296.39 327.478 296.145C327.518 296.005 328.292 296.355 328.658 296.25C329.554 295.97 330.776 295.76 331.427 295.095C331.508 295.025 332.893 293.17 332.933 293.1C333.015 292.785 332.567 292.05 332.771 291.805C332.974 291.595 333.748 291.315 334.114 290.965C334.643 290.475 334.725 289.635 335.458 289.285C338.348 289.04 339.366 286.94 341.972 286.66C342.135 286.66 342.705 286.555 342.827 286.59L343.356 287.395C343.519 287.605 345.27 288.585 345.555 288.515C345.799 288.48 345.921 288.095 346.166 288.025C346.695 288.095 348.161 287.255 348.323 286.835C348.364 286.765 347.998 286.345 348.161 286.065C348.283 285.855 350.115 284.595 350.4 284.455C351.051 284.455 351.743 284.315 352.354 284.525C352.721 284.665 352.761 285.19 353.168 285.26C353.616 285.295 354.431 285.12 354.756 285.19C355.123 285.26 355.286 284.56 355.733 284.525L355.815 284.595Z" fill="#D0A650"/>
<path d="M494.823 85.8262L517.495 150.951L458.14 110.702H531.507L472.152 150.951L494.823 85.8262Z" fill="white"/>
<path d="M583.107 100.356L605.779 165.481L546.423 125.231H619.79L560.435 165.481L583.107 100.356Z" fill="white"/>
<path d="M667.347 128.972L690.018 194.097L630.663 153.848H704.03L644.675 194.097L667.347 128.972Z" fill="white"/>
</svg>
