<svg width="900" height="600" viewBox="0 0 900 600" fill="none" xmlns="http://www.w3.org/2000/svg">
<path d="M900 0H0V600H900V0Z" fill="#D20000"/>
<path d="M0 0H135L450 289.286L765 0H900L0 600H135L450 310.714L765 600H900L0 0ZM900 240V360L0 240V360L900 240ZM405 0L450 257.143L495 0H405ZM405 600L450 342.857L495 600H405Z" fill="#FFE600"/>
<path d="M450 396.428C489.942 396.428 522.322 353.256 522.322 300C522.322 246.744 489.942 203.571 450 203.571C410.058 203.571 377.679 246.744 377.679 300C377.679 353.256 410.058 396.428 450 396.428Z" fill="#FFE600" stroke="#D20000" stroke-width="25"/>
</svg>
