<svg width="900" height="600" viewBox="0 0 900 600" fill="none" xmlns="http://www.w3.org/2000/svg">
<path d="M900 0H0V600H900V0Z" fill="#CC092F"/>
<path d="M600 0H0V600H600V0Z" fill="#FFD200"/>
<path d="M300 0H0V600H300V0Z" fill="#0046AE"/>
<path d="M423.845 122.16C422.233 122.16 420.826 122.708 420.005 123.56C421.309 124.067 422.258 125.671 422.258 127.621V132.57H418.547C417.093 132.57 415.889 131.323 415.5 129.601C414.861 130.695 414.451 132.572 414.451 134.72C414.451 136.869 414.861 138.746 415.5 139.839C415.881 138.099 417.083 136.835 418.547 136.835H422.258V160.623C422.258 162.493 421.381 164.044 420.159 164.615C421.929 164.937 423.453 168.105 423.87 169.837C424.289 168.109 425.812 164.937 427.582 164.615C426.347 164.054 425.457 162.505 425.457 160.623V136.834H429.169C430.623 136.834 431.826 138.081 432.215 139.805C432.854 138.71 433.264 136.832 433.264 134.685C433.264 132.536 432.854 130.659 432.215 129.565C431.835 131.305 430.632 132.568 429.169 132.568H425.457V127.62C425.457 125.681 426.391 124.077 427.684 123.558C426.864 122.707 425.456 122.159 423.845 122.159V122.16Z" fill="black"/>
<path d="M423.845 123.187C423.006 123.187 422.267 123.396 421.644 123.664C422.476 124.629 423.026 126.027 423.026 127.623V132.572C423.026 132.643 423.011 132.71 423 132.777V133.562H422.411C422.361 133.576 422.31 133.596 422.258 133.597H418.546C417.362 133.597 416.326 132.875 415.603 131.788C415.395 132.627 415.219 133.586 415.219 134.723C415.219 135.842 415.376 136.827 415.577 137.658C416.3 136.549 417.348 135.816 418.546 135.816H423.025C423.02 135.919 422.999 136.018 422.999 136.122V136.634C423.01 136.701 423.025 136.768 423.025 136.839V160.626C423.025 162.171 422.428 163.385 421.643 164.346C422.204 164.808 422.688 165.389 423.102 166.053C423.47 166.643 423.617 167.221 423.87 167.827C424.123 167.222 424.269 166.643 424.638 166.053C425.045 165.401 425.522 164.84 426.071 164.381C425.279 163.423 424.689 162.177 424.689 160.627V135.848H425.303C425.353 135.835 425.404 135.815 425.457 135.815H429.168C430.351 135.815 431.387 136.537 432.111 137.623C432.319 136.784 432.496 135.826 432.496 134.688C432.496 133.57 432.338 132.584 432.137 131.753C431.414 132.863 430.366 133.595 429.168 133.595H425.457C425.404 133.595 425.353 133.575 425.303 133.561H424.714V132.776C424.704 132.71 424.689 132.642 424.688 132.571V127.623C424.688 126.045 425.23 124.664 426.045 123.698C425.415 123.422 424.697 123.186 423.844 123.186" fill="#F5D402"/>
<path d="M470.304 209.324C468.037 207.177 466.175 204.75 464.852 201.918C461.666 195.102 460.322 186.736 460.322 178.233C460.322 174.639 463.342 170.593 463.342 167.686C463.342 163.293 463.035 160.657 463.035 160.657C464.106 160.852 465.978 163.387 465.978 163.387C465.978 163.387 465.914 156.095 464.186 154.821C464.186 154.821 464.885 153.862 467.411 153.763C466.701 151.366 463.188 148.439 463.188 148.439C463.364 148.02 463.688 147.657 464.109 147.347C464.992 146.696 466.232 146.267 467.18 146.016C466.169 145.736 465.004 145.308 463.725 144.752C460.804 143.484 457.366 141.621 454.152 139.566C448.286 135.814 443.818 135.572 441.354 135.573C439.567 135.573 436.934 135.638 435.391 137.007C433.978 138.257 434.093 139.883 433.599 140.454C432.434 141.798 430.438 141.75 429.477 141.75C423.257 141.75 423.027 150.624 423.027 150.624C423.027 150.624 424.617 147.416 427.429 147.416C432.105 147.416 435.646 150.812 435.646 152.091C435.646 152.609 435.164 152.705 435.134 152.705C432.08 152.705 427.471 150.361 425.023 150.248V151.852C430.488 154.387 436.029 157.976 436.029 173.796C436.029 183.758 435.135 193.923 431.397 201.918C430.073 204.75 428.188 207.172 425.919 209.325L448.112 214.658L470.304 209.324Z" fill="black"/>
<path d="M448.111 202.659L425.919 209.326C424.91 208.919 420.163 206.952 416.832 204.48C410.969 200.125 407.929 195.792 400.962 195.367V188.302C400.962 184.527 401.987 181.126 401.987 177.517C399.05 176.467 390.898 163.177 383.378 157.278C372.313 166.834 363.745 182.522 363.745 189.736C363.745 189.736 364.078 344.742 363.745 398.742C363.745 401.854 362.338 406.251 362.338 406.251C366.377 403.972 373.782 390.464 375.341 385.33V387.788C381.441 384.078 385.908 374.332 387.909 369.29C387.944 370.018 388.037 371.848 388.037 371.848C393.487 365.478 400.425 327.823 400.425 327.823L411.987 342.973C411.987 342.973 407.806 354.29 406.177 356.317C406.177 356.317 407.269 356.502 408.506 356.488C407.745 357.946 401.932 369.104 400.11 373.313C398.405 377.25 397.202 375.498 394.581 375.498C392.408 375.498 387.481 380.114 386.672 381.982C385.822 383.946 385.188 386.331 385.188 388.296C385.188 390.456 386.903 393.416 386.903 393.416C387.088 392.382 387.415 392.016 387.415 392.016C387.415 392.016 391.921 399.502 392.585 400.48C393.102 401.242 395.408 401.737 396.22 400.754C398.253 398.289 400.221 396.566 402.031 393.006C402.962 391.172 403.033 389.07 404.104 387.101C407.685 380.514 414.811 367.902 416.441 365.02C416.55 365.822 416.644 366.49 416.747 367.307C418.594 362.336 427.473 352.836 427.473 352.836L436.762 358.536C436.762 358.536 419.418 411.693 404.024 419.866C404.024 419.866 410.721 423.66 418.946 429.354C420.146 430.185 421.382 431.077 422.632 431.983C423.668 430.32 424.758 428.473 425.832 426.556C430.75 417.782 435.559 407.614 435.559 407.614C435.894 410.255 433.297 418.41 428.904 428.468C428.04 430.444 427.139 432.511 426.14 434.61C427.254 435.459 428.36 436.316 429.467 437.205C437.615 443.742 445.266 451.256 448.101 458.16L450.101 451.487L448.101 444.814V211.51L449.101 208.176L448.111 202.659Z" fill="black"/>
<path d="M448.101 444.814C445.227 440.657 439.217 435.577 432.462 430.89C440.629 411.346 444.676 380.453 442.777 374.303C442.777 374.303 439.425 390.325 435.328 399.456C431.535 407.912 426.866 417.423 422.351 424.473C418.637 422.361 415.036 420.588 411.959 419.353C425.488 405.458 439.322 359.525 439.322 359.525L425.016 350.685C425.016 350.685 419.664 359.005 417.926 360.549C417.926 360.549 417.183 356.412 416.748 354.952C416.748 354.952 414.698 357.02 413.575 357.069C413.575 357.069 413.24 354.261 412.986 352.427C411.574 353.682 409.224 353.417 409.224 353.417C411.287 352.114 413.729 344.133 413.729 344.133L400.068 319.905C400.068 319.905 395.269 350.649 389.804 356.969V224.582L394.13 229.939L400.682 221.783V215.571L394.872 222.806V204.069C395.747 202.303 396.328 200.985 396.766 199.94C397.706 202.126 400.746 208.826 404.316 212.943C404.904 209.758 408.77 206.731 408.77 206.731C408.77 206.731 410.156 211.737 412.276 212.977C413.022 211.225 417.473 207.346 417.473 207.346C417.473 207.346 413.665 208.117 412.123 210.043C410.799 209.647 410.459 202.671 410.459 202.671C410.459 202.671 404.856 206.31 403.881 208.916C402.813 208.531 401.149 202.924 400.502 200.623C401.479 200.481 402.86 200.316 404.674 200.316C406.272 200.316 408.317 201.325 410.459 202.671C412.812 204.148 415.274 206.019 417.473 207.347C420.289 209.047 424.549 209.392 425.791 209.463C424.369 210.796 422.805 212.013 421.108 213.149C421.108 213.149 427.813 213.066 432.524 209.94C434.204 208.499 435.948 207.063 437.438 205.367C436.792 207.762 435.785 210.593 434.212 213.011C441.13 212.231 444.575 206.963 445.552 205.196C446.011 206.779 446.828 209.321 448.111 211.509H450.611V438.176L448.101 444.814Z" fill="#B07F55"/>
<path d="M397.123 178.199L397.251 182.431V194.889C394.741 193.737 391.588 188.24 390.059 185.333V183.626C390.059 182.021 390.767 180.848 391.287 180.213L389.777 179.497C389.201 180.373 388.574 181.673 388.574 183.353V184.343L384.07 190.794L379.642 181.852V179.668C379.642 178.196 380.491 176.555 381.203 175.436L379.718 174.719C378.969 176.014 378.182 177.759 378.182 179.395V181.169C377.141 182.606 373.089 188.166 373.089 188.166C373.089 188.166 371.056 182.341 370.504 180.76C373.606 175.03 378.637 168.614 383.378 164.01C383.378 164.01 393.66 176.597 397.123 178.199Z" fill="#B07F55"/>
<path d="M371.063 190.28V200.554L367.48 204.99V189.735C367.48 188.274 367.939 186.514 368.708 184.581L371.063 190.28Z" fill="#B07F55"/>
<path d="M382.224 194.239V200.587L378.103 205.741V185.878L382.224 194.239Z" fill="#B07F55"/>
<path d="M376.643 205.707L372.521 200.588V193.148L376.643 187.38V205.707Z" fill="#B07F55"/>
<path d="M395.457 197.994C394.5 199.797 391.993 204.208 389.288 206.151V188.711C389.909 190.087 392.755 196.227 395.457 197.994Z" fill="#B07F55"/>
<path d="M387.828 189.598V205.707L383.707 200.587V194.888L387.828 189.598Z" fill="#B07F55"/>
<path d="M371.064 206.765V222.84L367.48 218.369V211.235L371.064 206.765Z" fill="#B07F55"/>
<path d="M376.64 211.918V217.686L372.518 222.805V206.799L376.64 211.918Z" fill="#B07F55"/>
<path d="M382.219 206.8V222.806L378.099 217.652V211.953L382.219 206.8Z" fill="#B07F55"/>
<path d="M387.826 211.953V217.652L383.704 222.806V206.799L387.826 211.953Z" fill="#B07F55"/>
<path d="M393.405 222.84L389.283 217.686V212.328C390.705 211.172 392.134 209.046 393.405 206.799L393.405 222.84Z" fill="#B07F55"/>
<path d="M382.963 229.939L387.314 224.546V356.966C387.314 356.966 387.618 363.537 387.826 367.819C385.891 370.427 378.612 380.241 378.612 380.241V224.511L382.963 229.939Z" fill="#B07F55"/>
<path d="M376.127 375.293C376.127 379.55 370.297 389.475 367.475 391.743V224.583L371.775 229.94L376.127 224.547V375.293Z" fill="#B07F55"/>
<path d="M412.268 360.925L415.442 358.024C415.442 358.024 415.653 359.424 415.928 361.335C414.569 363.813 406.762 378.018 402.899 384.952C401.939 386.675 401.132 391.061 401.132 391.061C401.132 391.061 399.725 390.174 399.725 388.57C399.725 386.995 399.879 385.123 399.879 385.123C399.879 385.123 398.829 386.727 397.012 386.727C397.012 384.792 399.819 382.692 399.93 379.936C397.789 382.052 395.93 380.966 393.454 381.984C390.758 383.092 390.007 384.602 389.18 384.544C388.693 384.509 388.252 383.389 388.438 382.701C388.76 381.51 392.095 378.212 394.426 377.616C394.985 377.474 399.378 378.891 400.263 377.07C403.909 369.569 409.828 357.391 410.399 356.218C410.775 356.098 411.121 355.971 411.396 355.739C411.396 355.739 411.363 359.573 412.268 360.925V360.925Z" fill="#D10429"/>
<path d="M391.86 384.302C392.037 384.574 392.021 384.972 391.834 385.188L390.401 386.86C390.213 387.076 389.912 387.03 389.736 386.758C389.559 386.486 389.574 386.087 389.762 385.87L391.195 384.198C391.288 384.09 391.409 384.043 391.527 384.062C391.646 384.08 391.771 384.165 391.86 384.302V384.302Z" fill="#D10429"/>
<path d="M394.036 386.315C394.464 386.973 394.437 387.907 393.984 388.431L390.503 392.492C390.05 393.017 389.32 392.912 388.89 392.254C388.462 391.595 388.489 390.628 388.942 390.104L392.423 386.077C392.592 385.879 392.824 385.759 393.037 385.735C393.393 385.696 393.767 385.904 394.036 386.315V386.315Z" fill="#D10429"/>
<path d="M396.031 389.455C396.459 390.114 396.432 391.046 395.979 391.571L392.473 395.632C392.02 396.157 391.315 396.052 390.886 395.394C390.457 394.736 390.484 393.768 390.938 393.244L394.418 389.217C394.588 389.02 394.793 388.9 395.007 388.875C395.363 388.836 395.762 389.043 396.031 389.455V389.455Z" fill="#D10429"/>
<path d="M397.232 391.946C397.588 391.908 397.962 392.08 398.23 392.492C398.659 393.151 398.632 394.118 398.179 394.642L394.698 398.67C394.245 399.195 393.54 399.09 393.111 398.431C392.682 397.772 392.684 396.839 393.136 396.314L396.643 392.254C396.812 392.056 397.018 391.969 397.232 391.946V391.946Z" fill="#D10429"/>
<path d="M442.967 137.758C448.696 137.758 452.725 141.24 458.146 144.446C459.567 145.286 460.871 145.967 462.036 146.494C461.306 147.356 460.739 148.222 460.577 148.952C460.577 148.952 463.006 149.552 464.109 152.263C464.109 152.263 461.799 152.612 461.421 154.412C462.715 154.542 464.001 156.717 464.007 158.816L460.73 157.45C460.73 157.45 461.524 162.355 461.524 167.688C461.524 170.412 458.581 173.618 458.581 178.234C458.581 192.724 461.318 198.293 463.265 202.772C464.027 204.525 464.646 206.542 465.927 208.062C460.318 204.08 456.149 199.103 456.149 194.48V176.972H454.69V194.48C454.69 197.832 455.304 199.394 455.304 199.394C456.185 203.104 457.965 208.829 459.067 211.134C453.907 207.416 451.285 202.759 451.285 201.032V176.971H449.826V201.373L450.108 203.045C449.482 204.298 448.669 205.782 448.111 206.287C447.555 205.783 446.766 204.296 446.14 203.045L446.422 201.373V176.971H444.963V201.032C444.963 202.758 442.341 207.416 437.181 211.134C438.284 208.828 440.063 203.104 440.943 199.394C440.943 199.394 441.558 197.833 441.558 194.48V176.972H440.099V194.48C440.099 199.098 435.945 204.083 430.346 208.062C431.615 206.54 432.225 204.515 432.982 202.772C435.111 197.874 437.743 191.65 437.743 173.934C437.743 167.284 437.006 162.764 435.721 159.6C435.331 158.556 434.805 155.777 437.794 155.777C439.343 155.777 442.888 159.429 442.888 159.429C442.888 159.429 442.742 156.515 440.943 154.856C440.644 154.58 440.15 153.714 440.15 152.91C440.15 152.307 440.925 150.82 441.531 150.452C441.948 150.2 435.44 148.688 435.44 144.753C435.44 143.934 435.826 143.388 437.179 143.388C438.952 143.388 441.835 146.22 444.398 146.22C446.293 146.22 447.04 145.606 448.98 145.606C451.351 145.606 456.297 151.592 457.989 151.373C456.098 149.79 453.042 143.796 448.417 143.796C446.811 143.796 445.358 144.274 443.86 144.274C441.939 144.274 440.048 141.919 437.973 141.919C436.582 141.919 435.028 142.022 434.798 141.543C434.396 140.706 434.758 140.221 435.131 139.53C435.836 138.225 437.814 137.846 439.765 137.756C440.35 137.728 440.934 137.715 441.481 137.722C442.026 137.73 442.531 137.758 442.967 137.758V137.758Z" fill="#B07F55"/>
<path d="M424.365 147.127C424.365 147.127 425.574 144.073 428.632 144.073C429.91 144.073 434.128 143.955 434.128 143.955C434.69 145.902 437.252 149.156 437.252 152.54C437.252 152.54 434.651 146.289 427.391 146.289C425.566 146.289 424.364 147.126 424.364 147.126L424.365 147.127Z" fill="#CC092F"/>
<path d="M436.17 153.733C436.17 153.733 434.623 155.905 434.287 157.065C432.757 156.291 430.088 152.624 430.088 152.624C430.088 152.624 432.35 154.385 436.169 153.733H436.17Z" fill="#D10429"/>
<path d="M433.72 147.98C433.72 147.98 431.936 147.217 431.936 146.419C431.936 145.401 432.803 145.401 433.321 146.194C433.677 146.74 433.72 147.981 433.72 147.981L433.72 147.98Z" fill="black"/>
<path d="M441.399 150.735C442.81 150.735 443.955 149.529 443.955 148.04C443.955 146.551 442.81 145.345 441.399 145.345C439.987 145.345 438.843 146.551 438.843 148.04C438.843 149.529 439.987 150.735 441.399 150.735Z" fill="black"/>
<path d="M441.4 150.413C442.383 150.413 443.18 149.351 443.18 148.04C443.18 146.729 442.383 145.667 441.4 145.667C440.417 145.667 439.62 146.729 439.62 148.04C439.62 149.351 440.417 150.413 441.4 150.413Z" fill="#F5D402"/>
<path d="M441.4 149.047C441.817 149.047 442.155 148.596 442.155 148.04C442.155 147.484 441.817 147.033 441.4 147.033C440.982 147.033 440.644 147.484 440.644 148.04C440.644 148.596 440.982 149.047 441.4 149.047Z" fill="black"/>
<path d="M408.788 400.527L400.688 394.634L398.722 406.653L406.823 412.546L408.788 400.527Z" fill="black"/>
<path d="M362.95 279.153L360.032 280.929L393 377.209H396.507L362.95 279.153ZM401.831 392.7L399.451 395.977L400.936 400.345L403.828 398.571L401.831 392.7Z" fill="black"/>
<path d="M373.195 355.066C373.195 355.066 375.972 362.714 378.082 363.763C376.991 363.366 373.447 365.1 373.447 365.1C373.447 365.1 379.696 372.544 384.997 373.032C389.492 373.445 391.674 370.454 391.674 370.454L390.774 364.104C390.774 364.104 388.024 359.676 383.623 357.633C379.176 355.568 373.194 355.068 373.194 355.068L373.195 355.066Z" fill="black"/>
<path d="M394.13 341.367C394.13 341.367 390.295 345.743 389.246 350.813C388.196 355.883 389.93 361.644 389.93 361.644L393.152 369.658C393.152 369.658 397.617 366.489 399.517 361.751C401.416 357.013 400.72 350.619 400.72 350.619C400.72 350.619 397.182 352.375 396.732 353.153C397.479 347.897 394.129 341.367 394.129 341.367H394.13Z" fill="black"/>
<path d="M381.805 339.32C381.805 339.32 377.444 341.285 373.209 340.945C369.175 340.621 365.821 336.104 365.821 336.104C365.821 336.104 369.165 333.087 370.815 333.489C369 332.604 366.367 326.54 366.367 326.54C366.367 326.54 370.108 325.033 373.425 326.7C376.742 328.369 379.635 333.213 379.635 333.213L381.806 339.32H381.805Z" fill="black"/>
<path d="M383.305 310.92C383.305 310.92 385.486 316.941 384.969 319.034C385.646 317.641 388.206 315.471 388.206 315.471C388.206 315.471 389.754 325.22 388.274 331.241C386.794 337.262 382.287 339.555 382.287 339.555L377.315 326.663C377.315 326.663 376.575 321.887 378.125 318.105C379.676 314.323 383.305 310.919 383.305 310.919V310.92Z" fill="black"/>
<path d="M354.93 294.98C354.93 294.98 359.644 294.32 363.956 296.702C367.561 298.697 368.666 302.324 368.666 302.324L370.441 308.671C370.441 308.671 365.311 311.236 361.257 309.275C357.203 307.311 354.225 300.821 354.225 300.821C354.225 300.821 357.058 299.389 358.136 299.926C356.565 298.999 354.931 294.98 354.931 294.98V294.981L354.93 294.98Z" fill="black"/>
<path d="M369.755 283.2C369.755 283.2 371.824 286.742 371.886 290.816C372.437 288.65 375.02 286.256 375.02 286.256C375.02 286.256 377.676 294.826 377.093 300.911C376.51 306.996 372.688 310.595 372.688 310.595L367.922 298.534C367.922 298.534 366.37 293.591 366.827 289.756C367.285 285.923 369.755 283.199 369.755 283.199V283.2Z" fill="black"/>
<path d="M353.43 260.133C353.43 260.133 352.576 266.703 354.03 270.487C355.329 273.863 356.156 274.604 356.156 274.604C353.679 272.425 349.934 272.237 349.934 272.237C349.934 272.237 351.267 279.384 354.452 282.645C357.638 285.905 362.55 285.143 362.55 285.143C362.55 285.143 365.78 279.41 365.555 273.233C365.33 267.057 361.651 260.435 361.651 260.435C361.651 260.435 360.2 264.449 360.072 267.445C359.133 264.356 353.429 260.134 353.429 260.134L353.43 260.133Z" fill="black"/>
<path d="M391.93 370.18L392.062 372.538C395 372.575 395.437 372.185 396.19 373.419C396.692 374.242 397.885 374.96 399.084 374.229C400.284 373.499 400.821 371.578 400.274 369.979C399.726 368.379 398.611 368.032 397.536 368.315C396.877 368.488 396.443 369.19 395.883 369.575C394.819 370.31 391.929 370.181 391.929 370.181L391.93 370.18Z" fill="black"/>
<path d="M391.675 368.38L393.104 369.777C391.571 373.119 391.093 373.407 391.479 374.913C391.737 375.916 391.562 377.645 390.461 378.615C389.361 379.585 387.855 379.176 387.127 377.71C386.4 376.243 386.769 374.799 387.518 373.733C387.978 373.079 388.654 372.96 389.195 372.531C390.226 371.716 391.675 368.379 391.675 368.379L391.675 368.38Z" fill="black"/>
<path d="M381.725 340.38L381.857 342.738C384.795 342.774 385.232 342.384 385.985 343.618C386.486 344.44 387.68 345.159 388.879 344.429C390.079 343.698 390.617 341.778 390.068 340.178C389.521 338.578 388.406 338.232 387.331 338.514C386.671 338.688 386.238 339.39 385.679 339.775C384.614 340.509 381.724 340.38 381.724 340.38L381.725 340.38Z" fill="black"/>
<path d="M382.32 341.213L383.57 342.891C381.666 345.874 381.158 346.06 381.365 347.627C381.503 348.672 381.128 350.344 379.928 351.074C378.728 351.804 377.288 351.088 376.74 349.488C376.192 347.889 376.726 346.538 377.59 345.641C378.121 345.091 378.803 345.112 379.387 344.802C380.5 344.211 382.32 341.214 382.32 341.214V341.213Z" fill="black"/>
<path d="M371.835 312.48L371.968 314.838C374.906 314.874 375.343 314.485 376.096 315.72C376.598 316.541 377.79 317.259 378.99 316.529C380.189 315.799 380.727 313.879 380.18 312.277C379.631 310.678 378.517 310.331 377.442 310.614C376.782 310.788 376.348 311.489 375.789 311.875C374.725 312.609 371.835 312.479 371.835 312.479L371.835 312.48Z" fill="black"/>
<path d="M372.65 311.987L373.899 313.664C371.995 316.647 371.488 316.833 371.694 318.401C371.832 319.445 371.457 321.117 370.257 321.847C369.058 322.576 367.617 321.86 367.069 320.261C366.522 318.661 367.056 317.31 367.92 316.413C368.45 315.862 369.132 315.885 369.717 315.573C370.83 314.982 372.65 311.987 372.65 311.987V311.987Z" fill="black"/>
<path d="M361.3 283.027L361.432 285.384C364.37 285.421 364.808 285.031 365.56 286.265C366.062 287.087 367.255 287.805 368.454 287.076C369.654 286.345 370.192 284.425 369.644 282.825C369.097 281.225 367.981 280.877 366.906 281.161C366.247 281.335 365.813 282.037 365.254 282.421C364.19 283.155 361.299 283.027 361.299 283.027H361.3Z" fill="black"/>
<path d="M362.115 282.533L363.364 284.211C361.46 287.195 360.952 287.38 361.159 288.948C361.297 289.992 360.922 291.664 359.722 292.394C358.522 293.124 357.082 292.408 356.535 290.808C355.987 289.209 356.521 287.857 357.384 286.961C357.915 286.411 358.597 286.432 359.181 286.121C360.294 285.53 362.114 282.534 362.114 282.534L362.115 282.533Z" fill="black"/>
<path d="M406.879 401.696L401.854 398.042L400.635 405.497L405.66 409.152L406.879 401.696Z" fill="#F5D402"/>
<path d="M379.86 333.393C378.807 333.976 377.245 327.863 376.098 324.515C374.921 321.078 372.532 315.781 373.211 315.368C373.955 314.915 374.936 317.696 376.14 321.213C377.344 324.728 380.846 332.845 379.86 333.392V333.393Z" fill="#F5D402"/>
<path d="M369.045 301.2C367.992 301.785 366.84 297.782 365.693 294.433C364.517 290.997 363.371 288.569 364.049 288.156C364.794 287.703 365.894 290.714 366.857 293.526C367.79 296.251 370.031 300.653 369.044 301.201L369.045 301.2Z" fill="#F5D402"/>
<path d="M394.065 374.193C393.239 374.488 389.631 364.419 386.714 355.899C383.797 347.379 381.625 340.486 382.304 340.074C383.049 339.62 385.41 347.668 388.328 356.189C391.246 364.71 394.685 373.971 394.066 374.193H394.065Z" fill="#F5D402"/>
<path d="M354.88 264.127C354.88 264.127 354.752 268.928 355.943 271.65C357.135 274.374 359.795 275.46 359.795 275.46C359.795 275.46 359.922 270.661 358.731 267.938C357.54 265.214 354.88 264.127 354.88 264.127V264.127Z" fill="#097754"/>
<path d="M352.39 274.987C352.39 274.987 355.518 275.232 357.324 277.077C359.129 278.923 359.829 282.767 359.829 282.767C359.829 282.767 357.756 283.048 355.951 281.203C354.145 279.357 352.39 274.987 352.39 274.987V274.987Z" fill="#097754"/>
<path d="M362.205 265.293C362.205 265.293 361.165 268.473 361.285 271.901C361.405 275.33 362.905 279.193 362.905 279.193C362.905 279.193 364.262 275.077 364.142 271.647C364.023 268.219 362.569 266.264 362.205 265.293Z" fill="#097754"/>
<path d="M356.94 296.2C356.94 296.2 358.475 299.059 360.839 300.618C363.203 302.176 366.726 302.234 366.726 302.234C366.726 302.234 364.968 299.192 362.603 297.634C360.239 296.076 356.94 296.199 356.94 296.199V296.2Z" fill="#097754"/>
<path d="M357.7 302.84C357.7 302.84 358.829 305.788 360.892 307.051C362.957 308.315 367.179 308.211 367.179 308.211C367.179 308.211 365.559 305.457 363.495 304.193C361.431 302.928 357.7 302.84 357.7 302.84H357.7Z" fill="#097754"/>
<path d="M369.585 287.12C369.585 287.12 368.338 289.869 368.46 292.897C368.582 295.927 370.073 299.238 370.073 299.238C370.073 299.238 371.122 295.443 370.999 292.413C370.877 289.383 369.585 287.12 369.585 287.12H369.585Z" fill="#097754"/>
<path d="M374.18 291.007C374.18 291.007 372.046 294.827 371.739 298.754C371.433 302.681 372.953 306.716 372.953 306.716C372.953 306.716 375.532 303.264 375.838 299.337C376.145 295.409 374.18 291.008 374.18 291.008V291.007Z" fill="#097754"/>
<path d="M368.295 327.274C368.295 327.274 368.551 328.686 369.443 330.185C370.335 331.686 371.861 333.273 371.861 333.273C371.861 333.273 373.336 332.641 375.169 333.17C377.001 333.7 379.439 335.876 379.439 335.876C379.439 335.876 376.815 330.656 374.091 328.626C371.367 326.597 368.296 327.273 368.296 327.273L368.295 327.274Z" fill="#097754"/>
<path d="M368.025 336.247C368.025 336.247 371.421 334.313 374.218 334.812C377.016 335.311 379.538 338.259 379.538 338.259C379.538 338.259 375.757 340.003 372.96 339.505C370.162 339.005 368.024 336.247 368.024 336.247H368.025Z" fill="#097754"/>
<path d="M382.38 315.193C382.38 315.193 379.377 319.436 379.125 323.118C378.874 326.799 381.56 330.231 381.56 330.231C381.56 330.231 381.428 327.869 381.891 326.315C382.354 324.76 383.337 323.1 383.337 323.1C383.337 323.1 383.756 321.205 383.594 319.685C383.368 317.561 382.38 315.193 382.38 315.193V315.193Z" fill="#097754"/>
<path d="M386.69 320.107C386.69 320.107 383.859 323.926 383.111 328.016C382.362 332.106 383.696 336.467 383.696 336.467C383.696 336.467 386.27 333.759 387.019 329.67C387.767 325.58 386.689 320.107 386.689 320.107H386.69Z" fill="#097754"/>
<path d="M393.78 344.76C393.78 344.76 395.063 348.33 395.388 351.316C395.714 354.3 395.412 355.334 395.412 355.334C395.412 355.334 394.086 357.072 393.491 358.094C392.727 359.407 392.615 361.811 392.615 361.811C392.615 361.811 389.953 356.534 390.363 352.676C390.773 348.818 393.78 344.76 393.78 344.76V344.76Z" fill="#097754"/>
<path d="M399.39 353.02C399.39 353.02 395.981 356.022 394.629 359.102C393.275 362.18 393.977 365.335 393.977 365.335C393.977 365.335 396.406 365.05 397.76 361.971C399.113 358.892 399.39 353.02 399.39 353.02L399.39 353.02Z" fill="#097754"/>
<path d="M376.99 365.7C376.99 365.7 381.903 365.521 384.906 366.506C387.909 367.49 389.002 369.636 389.002 369.636C389.002 369.636 385.625 371.744 382.622 370.76C379.619 369.777 376.989 365.7 376.989 365.7L376.99 365.7Z" fill="#097754"/>
<path d="M376.16 357.927C376.16 357.927 378.377 362.509 381.242 364.171C385.191 366.461 389.764 365.351 389.764 365.351C389.764 365.351 387.28 361.292 383.862 359.5C380.443 357.709 376.16 357.927 376.16 357.927V357.927Z" fill="#097754"/>
<path d="M544.37 267.962L545.01 269.77C545.01 269.77 543.971 270.246 543.5 271.476C543.03 272.708 543.807 274.446 543.807 274.446C543.807 274.446 538.405 273.818 537.562 274.549C536.798 275.209 537.885 280.198 537.382 284.412C536.681 290.286 534.944 289.792 534.873 290.93C534.804 292.036 535.539 293.763 535.539 293.763C535.539 293.763 534.526 294.188 534.31 294.753C533.962 295.661 534.552 297.336 534.131 298.438C531.781 304.587 528.311 313.662 526.017 319.667C525.697 320.505 524.835 320.825 524.404 321.954C524.006 322.995 524.328 324.513 524.328 324.513C524.328 324.513 522.807 324.634 522.279 326.015C521.719 327.482 522.049 329.462 522.049 329.462C522.049 329.462 521.087 329.626 520.615 330.861C520.11 332.182 520.965 332.874 520.745 333.455C517.66 341.523 514.028 351.034 511.811 356.834C510.996 358.966 508.142 359.394 506.486 363.728C504.879 367.932 507.177 371.031 507.177 371.031C507.177 371.031 504.791 371.319 504.157 372.977C503.511 374.667 504.022 377.233 505.744 378.403C507.466 379.572 509.347 378.626 509.994 376.936C510.627 375.278 509.353 372.533 509.353 372.533C509.353 372.533 512.585 373.154 514.191 368.949C515.847 364.615 514.451 361.322 515.266 359.188C517.483 353.388 521.116 343.878 524.2 335.81C524.422 335.229 525.333 335.732 525.838 334.411C526.31 333.176 525.838 332.056 525.838 332.056C525.838 332.056 527.249 331.236 527.809 329.769C528.337 328.388 527.528 326.664 527.528 326.664C527.528 326.664 528.639 326.136 529.037 325.094C529.468 323.966 529.151 322.861 529.472 322.022C531.767 316.018 535.237 306.942 537.586 300.794C538.008 299.691 539.364 299.314 539.711 298.404C539.927 297.84 539.583 296.494 539.583 296.494C539.583 296.494 541.078 296.296 541.708 295.572C542.357 294.826 541.039 293.228 544.191 289.019C546.452 286 550.099 284.224 550.052 283.012C549.999 281.672 546.443 276.221 546.443 276.221C546.443 276.221 547.943 276.052 548.414 274.822C548.884 273.592 548.568 272.16 548.568 272.16L550.052 271.818L550.052 262.433L544.37 267.962ZM495.302 398.678C495.078 399.263 495.037 400.062 495.302 400.759C495.302 400.759 493.511 400.012 492.896 400.418C492.317 400.8 492.896 412.056 492.896 412.056C492.896 412.056 500.044 406.044 499.935 405.196C499.82 404.295 498.322 402.773 498.322 402.773C498.901 402.649 499.353 402.165 499.577 401.579C499.812 400.962 499.843 399.2 498.22 398.097C497.612 397.684 497.07 397.561 496.632 397.62C495.905 397.718 495.45 398.293 495.302 398.678Z" fill="black"/>
<path d="M545.67 268.34L549.048 270.627L548.998 265.2L545.67 268.34Z" fill="#F5D402"/>
<path d="M544.365 271.617C543.931 272.753 544.353 274.207 545.312 274.859C546.272 275.51 547.386 275.107 547.821 273.972C548.255 272.836 547.832 271.382 546.873 270.73C546.513 270.485 546.136 270.389 545.773 270.422C545.169 270.477 544.637 270.907 544.365 271.617V271.617Z" fill="#F5D402"/>
<path d="M538.555 275.747C538.199 276.053 538.683 280.11 538.581 283.561C538.484 286.816 537.703 287.733 537.275 288.851C536.881 289.884 535.458 291.104 535.458 291.104L536.635 292.674C536.635 292.674 537.401 291.083 538.606 287.929C540.028 284.209 539.981 277.47 540.398 277.111C540.761 276.798 543.726 275.813 543.726 275.813C543.726 275.813 541.005 275.617 539.503 275.644C539.001 275.652 538.637 275.675 538.555 275.747Z" fill="#F5D402"/>
<path d="M538.865 294.483C538.865 294.483 539.258 293.024 540.631 289.432C542.287 285.099 545.821 281.956 545.903 281.172C545.989 280.364 544.675 276.565 544.675 276.565C544.675 276.565 541.557 277.362 541.116 277.931C540.69 278.48 540.878 284.109 539.222 288.442C537.85 292.034 537.175 293.357 537.175 293.357L538.865 294.483Z" fill="#F5D402"/>
<path d="M546.825 281.48C546.851 282.139 542.743 286.054 541.321 289.773C540.116 292.927 539.606 294.688 539.606 294.688L541.245 295.029C541.245 295.029 541.132 292.785 541.526 291.753C541.953 290.635 542.066 289.265 543.984 287.248C546.018 285.109 548.767 283.239 548.745 282.674C548.724 282.153 545.673 277.111 545.673 277.111C545.673 277.111 546.801 280.906 546.825 281.48Z" fill="#F5D402"/>
<path d="M534.795 305.813C537.263 299.355 538.017 298.915 538.327 298.101C538.662 297.226 538.582 296.049 537.483 295.301C537.071 295.022 536.717 294.951 536.408 294.995C535.891 295.069 535.516 295.507 535.307 296.053C534.996 296.867 535.165 297.956 532.696 304.415L527.09 319.056C527.09 319.056 526.502 320.493 527.602 321.24C528.701 321.986 529.189 320.489 529.189 320.489L534.795 305.813Z" fill="#F5D402"/>
<path d="M524.89 322.605C524.584 323.406 525.108 324.581 526.067 325.234C527.027 325.884 528.065 325.761 528.371 324.96C528.676 324.16 528.128 322.984 527.168 322.332C526.688 322.006 526.2 321.874 525.786 321.923C525.371 321.971 525.043 322.206 524.89 322.605Z" fill="#F5D402"/>
<path d="M522.815 326.769C522.419 327.804 523.037 329.291 524.198 330.081C525.359 330.869 526.618 330.671 527.013 329.636C527.409 328.6 526.791 327.115 525.631 326.325C525.195 326.03 524.764 325.873 524.351 325.847C523.664 325.804 523.063 326.121 522.815 326.769V326.769Z" fill="#F5D402"/>
<path d="M521.51 331.411C521.204 332.211 521.728 333.387 522.687 334.039C523.647 334.691 524.685 334.566 524.991 333.766C525.297 332.966 524.773 331.79 523.814 331.138C523.334 330.811 522.821 330.679 522.406 330.728C521.992 330.777 521.663 331.011 521.51 331.411V331.411Z" fill="#F5D402"/>
<path d="M520.665 335.848C520.665 335.848 514.441 352.181 512.245 357.929C511.543 359.765 508.589 360.909 507.432 363.936C506.267 366.981 507.089 369.832 508.609 370.864C510.129 371.897 512.36 371.146 513.524 368.1C514.681 365.073 513.642 361.198 514.343 359.363C516.539 353.613 522.764 337.281 522.764 337.281C522.764 337.281 523.377 335.844 522.278 335.097C522.003 334.911 521.764 334.892 521.561 334.927C520.955 335.031 520.665 335.848 520.665 335.848V335.848Z" fill="#F5D402"/>
<path d="M504.92 373.764C504.454 374.984 504.987 376.61 506.123 377.381C507.259 378.153 508.575 377.782 509.041 376.562C509.508 375.342 508.948 373.716 507.813 372.944C507.387 372.654 506.952 372.52 506.533 372.535C505.833 372.562 505.211 373.002 504.92 373.764Z" fill="#F5D402"/>
<path d="M496.628 398.713C496.273 398.729 495.979 398.879 495.861 399.191C495.622 399.814 496.115 400.799 496.961 401.375C497.808 401.949 498.693 401.896 498.932 401.272C499.171 400.647 498.677 399.663 497.832 399.088C497.408 398.8 496.984 398.696 496.628 398.712V398.713Z" fill="#F5D402"/>
<path d="M493.71 401.783V409.838L498.625 405.128C498.625 405.128 497.959 403.559 496.5 402.568C495.042 401.578 493.71 401.783 493.71 401.783V401.783Z" fill="#F5D402"/>
<path d="M496.822 222.398C496.822 217.98 501.173 213.626 501.173 213.626H395.05C395.05 213.626 399.402 217.98 399.402 222.398V327.722C399.402 330.496 400.045 332.303 401.066 334.069C402.086 335.971 404.261 338.599 406.517 340.554C413.487 346.589 425.14 352.953 433.957 358.301C441.304 362.757 444.293 364.555 448.112 370.86C451.931 364.555 454.945 362.758 462.292 358.301C471.108 352.954 482.761 346.589 489.732 340.554C491.989 338.599 494.164 335.972 495.184 334.069C496.205 332.303 496.822 330.496 496.822 327.722V222.398Z" fill="#F5D402"/>
<path d="M401.91 281.987V222.397C401.91 219.025 400.63 216.971 400.63 216.971H495.594C495.594 216.971 494.314 219.025 494.314 222.397L494.341 281.987L448.126 300.654L401.91 281.987Z" fill="#D10429"/>
<path d="M494.341 281.987L465.724 281.271H430.527L401.91 281.987V327.721C401.91 330.02 403.699 335.405 414.018 342.259C431.073 353.591 444.183 358.882 448.112 365.331C452.041 358.882 465.151 353.591 482.207 342.259C492.525 335.405 494.314 330.02 494.314 327.721L494.341 281.987Z" fill="#0B45BB"/>
<path d="M465.031 279.6C465.031 279.6 481.541 274.05 481.541 250.522C481.541 232.147 464.989 223.031 464.519 218.646C462.901 226.234 470.048 236.713 470.048 249.123C470.048 265.18 461.166 265.949 461.166 265.949C459.087 265.949 458.245 267.928 457.428 267.928C455.68 267.684 454.857 264.719 453.128 264.719C451.504 264.719 450.258 268.064 448.111 268.064C445.965 268.064 444.744 264.719 443.12 264.719C441.392 264.719 440.568 267.684 438.82 267.928C438.003 267.928 437.16 265.949 435.082 265.949C435.082 265.949 426.2 265.18 426.2 249.123C426.2 236.713 433.348 226.232 431.729 218.646C431.26 223.031 414.709 232.146 414.709 250.522C414.709 274.05 431.218 279.6 431.218 279.6L426.508 291.033C426.508 291.033 433.331 291.488 436.952 295.607C441.318 300.572 440.893 311.093 440.893 318.746C440.893 324.776 440.322 331.14 438.001 333.762C434.885 337.285 432.779 337.546 432.779 341.681C432.779 345.13 434.767 345.822 438.001 348.098C442.145 351.013 441.952 354.923 448.111 354.923C454.272 354.923 454.104 351.014 458.248 348.098C461.482 345.822 463.47 345.13 463.47 341.681C463.47 337.546 461.363 337.285 458.248 333.762C455.927 331.138 455.356 324.776 455.356 318.746C455.356 311.093 454.931 300.572 459.297 295.607C462.919 291.489 469.74 291.033 469.741 291.033L465.031 279.6Z" fill="black"/>
<path d="M448.11 220.28L445.243 231.134L437.436 226.184L441.147 236.594L433.008 240.45L441.147 244.307L437.436 254.682L445.243 249.734L448.11 260.586L451.003 249.734L458.81 254.682L455.099 244.307L463.238 240.45L455.099 236.594L458.81 226.184L451.003 231.134L448.11 220.28Z" fill="black"/>
<path d="M430.525 281.273C430.525 281.273 420.332 277.951 416.524 271.239C409.868 279.223 401.908 281.99 401.908 281.99C401.908 281.99 410.212 286.989 416.524 293.355C419.433 287.798 430.525 281.273 430.525 281.273Z" fill="black"/>
<path d="M465.72 281.273C465.72 281.273 476.813 287.797 479.722 293.355C486.034 286.989 494.337 281.99 494.337 281.99C494.337 281.99 486.378 279.223 479.722 271.239C475.915 277.95 465.72 281.273 465.72 281.273Z" fill="black"/>
<path d="M434.7 295.74L430.733 301.029L434.7 306.319L438.668 301.029L434.7 295.74Z" fill="black"/>
<path d="M461.55 295.74L457.583 301.029L461.55 306.319L465.518 301.029L461.55 295.74Z" fill="black"/>
<path d="M433.702 326.626C433.702 333.31 433.216 336.831 433.216 336.831C433.216 336.831 438.809 334.636 439.923 327.07C440.445 323.524 441.026 310.458 438.335 308.231L431.041 306.32C431.828 308.919 433.702 316.971 433.702 326.626V326.626Z" fill="black"/>
<path d="M457.915 308.232C455.224 310.459 455.806 323.524 456.328 327.071C457.441 334.637 463.034 336.832 463.034 336.832C463.034 336.832 462.548 333.311 462.548 326.627C462.548 316.972 464.422 308.919 465.211 306.32L457.915 308.232Z" fill="black"/>
<path d="M416.503 308.61C413.987 309.451 412.467 312.866 413.099 316.22C413.195 316.734 413.354 317.208 413.534 317.654C413.167 317.491 412.785 317.383 412.382 317.346C412.22 317.332 412.054 317.339 411.896 317.346C409.515 317.453 407.531 319.948 407.365 323.183C407.188 326.632 409.155 329.602 411.743 329.838C412.129 329.873 412.504 329.854 412.868 329.77C412.646 330.177 412.453 330.612 412.306 331.1C411.337 334.309 412.51 338.001 414.917 339.292C417.323 340.582 420.066 338.985 421.034 335.777C421.182 335.287 421.264 334.809 421.316 334.309C421.537 334.719 421.804 335.095 422.109 335.435C424.098 337.654 427.074 337.302 428.738 334.65C430.403 331.998 430.139 328.063 428.149 325.845C427.848 325.509 427.514 325.245 427.177 325.026C427.538 324.872 427.89 324.658 428.226 324.378C430.423 322.542 431.088 318.639 429.71 315.709C428.763 313.695 427.099 312.66 425.436 312.808C424.679 312.876 423.921 313.19 423.234 313.764C422.899 314.045 422.601 314.356 422.339 314.72C422.339 314.216 422.307 313.697 422.211 313.184C421.659 310.249 419.635 308.314 417.45 308.44C417.138 308.458 416.817 308.505 416.503 308.61V308.61Z" fill="black"/>
<path d="M466.413 326.833C466.921 333.225 470.817 338.579 475.627 340.109C474.806 338.318 474.26 336.321 474.091 334.205C473.489 326.625 477.885 320.485 483.895 320.485C484.842 320.485 485.759 320.641 486.659 320.929C484.54 316.298 480.551 313.079 476.215 313.08C470.206 313.08 465.809 319.255 466.413 326.833V326.833Z" fill="black"/>
<path d="M423.796 249.122C423.796 261.208 428.63 268.336 435.084 268.336C436.315 268.336 437.662 270.555 438.822 270.555C440.713 270.555 441.971 267.756 443.122 267.756C444.586 267.756 445.572 270.828 448.113 270.828C450.655 270.828 451.667 267.756 453.13 267.756C454.281 267.756 455.539 270.555 457.43 270.555C458.591 270.555 459.936 268.336 461.168 268.336C467.622 268.336 472.456 261.208 472.456 249.122C472.456 239.266 466.248 227.249 466.927 225.3C466.927 225.3 479.034 236.879 479.034 250.521C479.034 272.496 462.32 277.927 462.32 277.927L466.082 289.223C466.082 289.223 460.901 290.259 457.738 293.66C453.518 298.197 453.463 310.454 453.463 318.744C453.463 328.51 453.735 332.648 456.381 335.297C459.171 338.092 461.27 338.694 461.27 341.543C461.27 344.025 459.097 345.04 456.278 346.696C453.072 348.581 452.752 351.85 448.113 351.85C443.474 351.85 443.18 348.581 439.973 346.696C437.155 345.04 434.982 344.026 434.982 341.543C434.982 338.694 437.08 338.092 439.87 335.297C442.516 332.648 442.788 328.51 442.788 318.744C442.788 310.454 442.733 298.197 438.514 293.66C435.35 290.258 430.169 289.223 430.169 289.223L433.931 277.927C433.931 277.927 417.217 272.497 417.217 250.521C417.217 236.879 429.325 225.3 429.325 225.3C430.004 227.249 423.796 239.266 423.796 249.122V249.122ZM441.79 339.873C438.507 339.873 436.415 340.797 436.415 342.126C436.415 343.455 438.507 344.345 441.79 344.345C442.665 344.345 443.659 343.665 443.659 342.126C443.659 340.587 442.665 339.873 441.79 339.873ZM454.46 339.873C453.585 339.873 452.592 340.587 452.592 342.126C452.591 343.665 453.585 344.345 454.46 344.345C457.744 344.345 459.835 343.456 459.835 342.126C459.835 340.797 457.744 339.873 454.46 339.873Z" fill="#FFD200"/>
<path d="M448.141 227.586L449.984 234.516L454.949 231.342L452.594 237.996L457.765 240.454L452.594 242.912L454.949 249.532L449.984 246.392L448.115 253.286L446.272 246.392L441.307 249.532L443.662 242.912L438.491 240.454L443.662 237.996L441.307 231.342L446.272 234.516L448.141 227.586V227.586Z" fill="#FFD200"/>
<path d="M425.074 281.685C425.073 281.685 416.524 290.149 416.524 290.149L416.421 290.319L416.242 290.114L406.772 282.196C406.772 282.196 412.815 279.418 416.371 274.586C419.735 279.722 425.074 281.685 425.074 281.685Z" fill="#FFD200"/>
<path d="M489.474 282.196C489.474 282.196 483.17 286.383 480.003 290.114L479.824 290.319L479.722 290.149C476.729 285.568 471.173 281.685 471.173 281.685C471.173 281.685 476.511 279.722 479.876 274.586C483.431 279.418 489.474 282.196 489.474 282.196V282.196Z" fill="#FFD200"/>
<path d="M434.701 298.267L436.774 301.03L434.701 303.829L432.602 301.03L434.701 298.267Z" fill="#FFD200"/>
<path d="M461.551 298.267L463.65 301.03L461.551 303.829L459.478 301.03L461.551 298.267Z" fill="#FFD200"/>
<path d="M437.517 310.346C438.966 313.011 438.72 317.32 438.72 323.316C438.72 329.36 435.316 331.676 435.316 331.676C435.316 317.147 434.192 313.654 433.601 309.253L437.517 310.346Z" fill="#FFD200"/>
<path d="M462.65 309.253C462.058 313.654 460.936 317.147 460.936 331.676C460.936 331.676 457.531 329.36 457.531 323.315C457.531 317.32 457.285 313.012 458.734 310.346L462.65 309.253Z" fill="#FFD200"/>
<path d="M421.416 314.752C421.518 315.296 421.53 315.83 421.493 316.356C421.463 316.792 421.376 317.188 421.263 317.584C420.697 317.308 420.084 317.174 419.446 317.174C417.866 317.174 416.452 318.101 415.478 319.564C415.223 319.263 415.001 318.93 414.813 318.54C414.603 318.108 414.425 317.634 414.326 317.107C413.835 314.498 415.032 311.856 416.989 311.202C417.233 311.12 417.489 311.079 417.731 311.066C419.427 310.969 420.986 312.47 421.416 314.752Z" fill="#FFD200"/>
<path d="M419.446 329.022C421.397 329.022 422.978 326.913 422.978 324.312C422.978 321.71 421.397 319.602 419.446 319.602C417.495 319.602 415.913 321.71 415.913 324.312C415.913 326.913 417.495 329.022 419.446 329.022Z" fill="#FFD200"/>
<path d="M481.463 317.961C475.598 319.473 471.378 326.38 471.992 334.446C470.123 332.382 468.755 329.602 468.511 326.528C468.035 320.542 471.296 315.913 476.216 315.913C478.096 315.913 479.903 316.681 481.463 317.961V317.961Z" fill="#FFD200"/>
</svg>
