<svg width="900" height="600" viewBox="0 0 900 600" fill="none" xmlns="http://www.w3.org/2000/svg">
<path d="M900 0H0V600H900V0Z" fill="#ED1C24"/>
<path d="M900 0H0V400H900V0Z" fill="#005DA4"/>
<path d="M900 0H0V200H900V0Z" fill="white"/>
<g clip-path="url(#clip0_103_2783)">
<path d="M278.502 210.447L283.227 117.465C265.032 105.968 245.148 100.004 225.012 100.004C204.877 100.004 184.993 105.968 166.797 117.465L171.522 210.447C172.559 230.852 178.233 250.353 187.788 266.351C197.344 282.35 210.328 294.087 225.012 300.001C239.696 294.087 252.68 282.35 262.236 266.351C271.792 250.353 277.466 230.852 278.502 210.447" fill="#005DA4"/>
<path d="M181.34 223.042C183.829 237.979 189.15 251.814 196.794 263.226C204.439 274.638 214.15 283.245 225.002 288.223C235.853 283.245 245.564 274.638 253.209 263.226C260.853 251.814 266.174 237.979 268.663 223.042L246.832 184.232L238.1 199.756L225.002 164.827L211.903 199.756L203.171 184.232L181.34 223.042Z" fill="white"/>
<path d="M183.291 232.745C184.246 234.952 185.518 236.886 187.035 238.438C188.551 239.989 190.282 241.127 192.128 241.787C193.974 242.446 195.899 242.614 197.794 242.282C199.689 241.949 201.516 241.122 203.171 239.848C205.384 238.145 207.894 237.248 210.448 237.248C213.003 237.248 215.513 238.145 217.725 239.848C219.938 241.551 222.447 242.448 225.002 242.448C227.557 242.448 230.066 241.551 232.279 239.848C234.491 238.145 237.001 237.248 239.556 237.248C242.11 237.248 244.62 238.145 246.833 239.848C248.488 241.122 250.315 241.949 252.21 242.282C254.105 242.614 256.03 242.446 257.876 241.787C259.722 241.127 261.453 239.989 262.969 238.438C264.486 236.886 265.758 234.952 266.714 232.745V238.347C265.758 240.554 264.486 242.488 262.969 244.039C261.453 245.591 259.722 246.729 257.876 247.388C256.03 248.048 254.105 248.216 252.21 247.883C250.315 247.551 248.488 246.724 246.833 245.45C244.62 243.746 242.11 242.85 239.556 242.85C237.001 242.85 234.491 243.746 232.279 245.45C230.066 247.153 227.557 248.049 225.002 248.049C222.447 248.049 219.938 247.153 217.725 245.45C215.513 243.746 213.003 242.85 210.448 242.85C207.894 242.85 205.384 243.746 203.171 245.45C201.516 246.724 199.689 247.551 197.794 247.883C195.899 248.216 193.974 248.048 192.128 247.388C190.282 246.729 188.551 245.591 187.035 244.039C185.518 242.488 184.246 240.554 183.291 238.347V232.745Z" fill="#005DA4"/>
<path d="M225.001 138.146L226.093 142.902L229.728 141.784L227.184 145.422L229.728 149.061L226.093 147.943L225.001 152.699L223.91 147.943L220.275 149.061L222.818 145.422L220.275 141.784L223.91 142.902L225.001 138.146Z" fill="#FFDD00"/>
<path d="M170.872 114.989L175.704 210.067C176.669 229.047 181.883 247.204 190.672 262.189C199.461 277.174 211.42 288.299 225.002 294.123C238.584 288.299 250.543 277.174 259.332 262.189C268.121 247.204 273.335 229.047 274.3 210.067L279.132 114.989C280.484 115.843 281.845 116.667 283.217 117.46L278.492 210.442C277.456 230.848 271.782 250.348 262.226 266.347C252.67 282.345 239.686 294.083 225.002 299.996C210.318 294.083 197.334 282.345 187.778 266.347C178.222 250.348 172.549 230.848 171.512 210.442L166.787 117.46C168.159 116.667 169.521 115.843 170.872 114.989" fill="#ED1C24"/>
</g>
<defs>
<clipPath id="clip0_103_2783">
<rect width="116.433" height="199.993" fill="white" transform="translate(166.785 100)"/>
</clipPath>
</defs>
</svg>
