<svg width="900" height="600" viewBox="0 0 900 600" fill="none" xmlns="http://www.w3.org/2000/svg">
<path d="M0 0H900V600H0V0Z" fill="#E30A17"/>
<path d="M318.75 450C401.593 450 468.75 382.843 468.75 300C468.75 217.157 401.593 150 318.75 150C235.907 150 168.75 217.157 168.75 300C168.75 382.843 235.907 450 318.75 450Z" fill="white"/>
<path d="M356.25 420C422.524 420 476.25 366.274 476.25 300C476.25 233.726 422.524 180 356.25 180C289.976 180 236.25 233.726 236.25 300C236.25 366.274 289.976 420 356.25 420Z" fill="#E30A17"/>
<path d="M437.5 300L573.176 344.085L489.323 228.671V371.33L573.176 255.916L437.5 300Z" fill="white"/>
</svg>
