<svg width="27" height="18" viewBox="0 0 27 18" fill="none" xmlns="http://www.w3.org/2000/svg">
<path d="M26.105 17.8911C25.876 17.8911 25.666 17.7601 25.576 17.5451C25.51 17.3891 23.86 13.6881 17.691 12.9551C16.406 12.7991 14.867 12.7191 12.998 12.7051V17.3181C12.998 17.5311 12.883 17.7241 12.694 17.8261C12.506 17.9241 12.281 17.9101 12.106 17.7931L0.254 9.81511C0.094 9.70811 0 9.52811 0 9.33911C0 9.14811 0.094 8.97411 0.254 8.86211L12.111 0.883112C12.286 0.762112 12.509 0.754112 12.699 0.854112C12.889 0.956112 13.002 1.14911 13.002 1.35611V5.64911C15.58 5.98511 26.676 7.97911 26.676 17.3231C26.676 17.5941 26.485 17.8311 26.217 17.8851C26.18 17.8911 26.141 17.8911 26.105 17.8911Z" fill="#2431EB"/>
</svg>
